<svg width="93" height="28" viewBox="0 0 93 28" fill="none" xmlns="http://www.w3.org/2000/svg">
<path d="M85.6373 0.964854L8.31515 1.0327C8.0333 1.03295 7.75483 1.03319 7.47368 1.03478C7.23841 1.03634 7.00498 1.04044 6.76741 1.04395C6.2513 1.04972 5.73644 1.08992 5.2273 1.16422C4.71888 1.24012 4.22644 1.38281 3.76665 1.58746C3.30743 1.79385 2.88791 2.06187 2.52331 2.3818C2.15678 2.70081 1.85134 3.06944 1.61874 3.47351C1.38549 3.87682 1.22389 4.30892 1.13954 4.75489C1.05438 5.20029 1.00874 5.65078 1.00305 6.10233C0.996091 6.30868 0.995514 6.51569 0.991938 6.72209L1.00629 22.2776C1.01025 22.4866 1.01121 22.689 1.01855 22.8981C1.02508 23.3496 1.07154 23.8 1.15752 24.2452C1.24247 24.6912 1.40487 25.1233 1.63909 25.5263C1.87232 25.9287 2.17848 26.2953 2.54566 26.6119C2.90948 26.9326 3.32977 27.2001 3.79047 27.4041C4.25063 27.6085 4.74328 27.7512 5.25191 27.8273C5.76127 27.9001 6.27615 27.9395 6.79223 27.945C7.02974 27.9493 7.26324 27.9517 7.49859 27.9515C7.77967 27.9526 8.05814 27.9524 8.33999 27.9521L85.662 27.8843C85.9383 27.8841 86.219 27.8838 86.4952 27.8822C86.7295 27.882 86.9697 27.8792 87.2038 27.8744C87.7189 27.8683 88.2328 27.8281 88.741 27.7541C89.2511 27.6765 89.7452 27.533 90.2072 27.3283C90.6671 27.1233 91.0866 26.8552 91.4495 26.5339C91.8151 26.2154 92.1213 25.8485 92.3567 25.4467C92.5884 25.043 92.7484 24.6107 92.8313 24.1647C92.9166 23.7193 92.9639 23.2689 92.9727 22.8174C92.9756 22.6083 92.9754 22.4059 92.9752 22.1969C92.9812 21.9524 92.9809 21.7093 92.9807 21.4608L92.9677 7.37616C92.9675 7.12964 92.9673 6.88522 92.9609 6.6414C92.9607 6.43499 92.9605 6.22798 92.9572 6.02158C92.9476 5.57 92.8995 5.11969 92.8133 4.67439C92.7294 4.22886 92.5686 3.79712 92.3363 3.39398C91.8611 2.58482 91.1082 1.92648 90.1834 1.51157C89.721 1.30823 89.2266 1.16644 88.7164 1.09089C88.2081 1.01718 87.6942 0.977874 87.179 0.973327C86.9448 0.970235 86.7046 0.966475 86.4704 0.965402C86.1942 0.964298 85.9135 0.964544 85.6372 0.964787L85.6373 0.964854Z" fill="#A6A6A6"/>
<path d="M7.50198 27.3652C7.26779 27.3654 7.03928 27.363 6.80692 27.3587C6.32561 27.3536 5.8454 27.3174 5.37022 27.2504C4.92713 27.1841 4.49784 27.0603 4.09652 26.8833C3.69887 26.7078 3.33611 26.4775 3.02214 26.2012C2.70362 25.9282 2.43834 25.6115 2.23683 25.2636C2.03313 24.9134 1.89203 24.538 1.81845 24.1504C1.73902 23.734 1.69587 23.3129 1.68939 22.8907C1.68433 22.749 1.67752 22.2773 1.67752 22.2773L1.66315 6.75584C1.66315 6.75584 1.66949 6.29127 1.6739 6.15474C1.67936 5.73325 1.7215 5.31273 1.79994 4.89682C1.87294 4.50807 2.01347 4.13135 2.21664 3.77969C2.41673 3.43166 2.67992 3.11423 2.99599 2.83968C3.31172 2.56253 3.67523 2.33039 4.07325 2.15172C4.47333 1.97459 4.90158 1.85102 5.34365 1.78515C5.82028 1.71662 6.3021 1.67939 6.78508 1.67377L7.47858 1.66483L86.4675 1.59573L87.1692 1.60365C87.6479 1.6082 88.1254 1.6443 88.5978 1.71165C89.0445 1.77758 89.4774 1.90127 89.8824 2.07866C90.6804 2.43732 91.33 3.0053 91.7401 3.70298C91.9407 4.05188 92.0797 4.42531 92.1525 4.81059C92.2327 5.22977 92.2777 5.6535 92.2873 6.07843C92.2897 6.26871 92.2899 6.4731 92.2901 6.67655C92.2965 6.92851 92.2967 7.16831 92.2969 7.41013L92.31 21.4722C92.3102 21.7163 92.3104 21.9544 92.3045 22.1946C92.3047 22.4131 92.3049 22.6133 92.302 22.8193C92.2934 23.2366 92.2498 23.6529 92.1717 24.0648C92.1003 24.4552 91.9607 24.8338 91.7577 25.1872C91.5554 25.5317 91.2923 25.8461 90.978 26.1189C90.6643 26.3972 90.3013 26.6295 89.9031 26.8069C89.4995 26.986 89.0675 27.1109 88.6214 27.1774C88.1463 27.2457 87.6661 27.2827 87.1848 27.2883C86.9549 27.2932 86.725 27.2958 86.4951 27.2961L85.6619 27.2981L7.50198 27.3652Z" fill="black"/>
<path d="M19.8495 14.4829C19.8574 13.885 20.0199 13.2988 20.3221 12.7788C20.6242 12.2589 21.0561 11.822 21.5776 11.5088C21.2463 11.0467 20.8093 10.6664 20.3012 10.3981C19.7931 10.1298 19.228 9.98091 18.6507 9.96326C17.4192 9.83697 16.2254 10.683 15.5978 10.683C14.9582 10.683 13.992 9.97579 12.9516 9.99671C12.2786 10.0179 11.6227 10.2091 11.0479 10.5515C10.473 10.8939 9.99873 11.3759 9.6713 11.9506C8.253 14.3491 9.31093 17.8741 10.6696 19.8128C11.3494 20.7622 12.1437 21.8226 13.1832 21.785C14.2004 21.7438 14.5803 21.1514 15.8082 21.1514C17.0247 21.1514 17.3811 21.785 18.4417 21.761C19.5332 21.7438 20.2208 20.8075 20.8767 19.8492C21.3651 19.1727 21.7409 18.4251 21.9903 17.634C21.3561 17.3721 20.815 16.9335 20.4343 16.3732C20.0536 15.8128 19.8502 15.1554 19.8495 14.4829ZM17.8462 8.68817C18.4414 7.99035 18.7346 7.09342 18.6636 6.18786C17.7543 6.28114 16.9145 6.70558 16.3113 7.37663C16.0164 7.70446 15.7905 8.08584 15.6466 8.49898C15.5027 8.91212 15.4435 9.34892 15.4725 9.7844C15.9273 9.78897 16.3772 9.69269 16.7884 9.50281C17.1996 9.31293 17.5613 9.03439 17.8462 8.68817V8.68817ZM32.7076 19.3816H29.2363L28.4027 21.7858H26.9324L30.2204 12.8908H31.7479L35.0358 21.7858H33.5405L32.7076 19.3816ZM29.5958 18.2722H32.3474L30.991 14.3704H30.953L29.5958 18.2722ZM42.1366 18.5437C42.1366 20.5589 41.0322 21.8537 39.3657 21.8537C38.9436 21.8752 38.5237 21.7803 38.1543 21.5796C37.7848 21.3789 37.4806 21.0807 37.2766 20.719H37.2451V23.9312H35.8823V15.3007H37.2015V16.3794H37.2266C37.4399 16.0194 37.7492 15.7228 38.1215 15.5209C38.4937 15.319 38.9151 15.2194 39.3407 15.2328C41.0258 15.2328 42.1366 16.5339 42.1366 18.5436V18.5437ZM40.7357 18.5437C40.7357 17.2307 40.0411 16.3675 38.9812 16.3675C37.9398 16.3675 37.2395 17.2488 37.2395 18.5436C37.2395 19.8503 37.9398 20.7254 38.9812 20.7254C40.0411 20.7254 40.7357 19.8685 40.7357 18.5436V18.5437ZM49.4442 18.5437C49.4442 20.5589 48.34 21.8537 46.6734 21.8537C46.2513 21.8752 45.8314 21.7802 45.462 21.5796C45.0925 21.3789 44.7884 21.0807 44.5844 20.719H44.5529V23.9312H43.19V15.3007H44.5092V16.3794H44.5342C44.7476 16.0194 45.0569 15.7228 45.4292 15.5209C45.8014 15.319 46.2228 15.2194 46.6483 15.2328C48.3335 15.2328 49.4442 16.5339 49.4442 18.5436V18.5437ZM48.0435 18.5437C48.0435 17.2307 47.3488 16.3675 46.2889 16.3675C45.2475 16.3675 44.5472 17.2488 44.5472 18.5436C44.5472 19.8503 45.2475 20.7254 46.2889 20.7254C47.3488 20.7254 48.0435 19.8685 48.0435 18.5436V18.5437ZM54.2741 19.3075C54.3751 20.1896 55.2524 20.7688 56.4512 20.7688C57.5999 20.7688 58.4264 20.1896 58.4264 19.3942C58.4264 18.7037 57.9279 18.2904 56.7478 18.0071L55.5674 17.7294C53.8952 17.3348 53.1189 16.571 53.1189 15.3314C53.1189 13.7967 54.4882 12.7426 56.4326 12.7426C58.3569 12.7426 59.6761 13.7967 59.7205 15.3314H58.3447C58.2623 14.4438 57.5111 13.9079 56.4132 13.9079C55.3154 13.9079 54.5641 14.4501 54.5641 15.2391C54.5641 15.868 55.044 16.238 56.2177 16.5213L57.2211 16.7619C59.0895 17.1935 59.8659 17.9266 59.8659 19.2276C59.8659 20.8918 58.5087 21.9341 56.3502 21.9341C54.3306 21.9341 52.967 20.9162 52.879 19.3074L54.2741 19.3075ZM62.8071 13.766V15.3007H64.0697V16.3549H62.8071V19.93C62.8071 20.4855 63.0599 20.7443 63.615 20.7443C63.7649 20.7417 63.9145 20.7314 64.0633 20.7135V21.7614C63.8137 21.8069 63.5601 21.8275 63.3063 21.8229C61.9621 21.8229 61.4378 21.3298 61.4378 20.072V16.3549H60.4724V15.3007H61.4378V13.766H62.8071ZM64.801 18.5437C64.801 16.5031 66.0313 15.221 67.95 15.221C69.875 15.221 71.0996 16.5031 71.0996 18.5437C71.0996 20.5897 69.8814 21.8663 67.9499 21.8663C66.0191 21.8663 64.801 20.5897 64.801 18.5437ZM69.711 18.5437C69.711 17.1439 69.0542 16.3178 67.9499 16.3178C66.8456 16.3178 66.1896 17.1502 66.1896 18.5437C66.1896 19.949 66.8456 20.7688 67.9499 20.7688C69.0542 20.7688 69.711 19.949 69.711 18.5437ZM72.2232 15.3007H73.5231V16.4045H73.5546C73.6425 16.0597 73.8493 15.7551 74.1402 15.5417C74.431 15.3283 74.7882 15.2193 75.1517 15.2328C75.3087 15.2323 75.4653 15.249 75.6186 15.2825V16.5276C75.4203 16.4685 75.2135 16.4413 75.0063 16.4472C74.8083 16.4393 74.6109 16.4734 74.4277 16.5471C74.2444 16.6208 74.0797 16.7324 73.9448 16.8741C73.8099 17.0159 73.708 17.1845 73.6461 17.3683C73.5841 17.5522 73.5637 17.7469 73.5861 17.9392V21.7858H72.2232V15.3007ZM81.9022 19.8811C81.7188 21.0584 80.545 21.8663 79.0433 21.8663C77.1118 21.8663 75.9129 20.6023 75.9129 18.5744C75.9129 16.5402 77.1182 15.221 78.9859 15.221C80.823 15.221 81.9781 16.4535 81.9781 18.4198V18.8759H77.2887V18.9563C77.267 19.195 77.2976 19.4354 77.3784 19.6617C77.4592 19.8879 77.5883 20.0948 77.7573 20.2685C77.9262 20.4422 78.131 20.5789 78.3582 20.6694C78.5853 20.7598 78.8296 20.8021 79.0747 20.7933C79.3968 20.8227 79.72 20.7499 79.9963 20.5855C80.2726 20.4212 80.4871 20.1741 80.6081 19.8811H81.9022ZM77.2951 17.9455H80.6145C80.6267 17.7309 80.5934 17.5162 80.5166 17.3147C80.4399 17.1133 80.3213 16.9295 80.1684 16.775C80.0155 16.6204 79.8315 16.4984 79.628 16.4166C79.4245 16.3348 79.2059 16.2949 78.9859 16.2996C78.764 16.2983 78.544 16.3399 78.3386 16.4221C78.1333 16.5043 77.9466 16.6254 77.7894 16.7784C77.6322 16.9315 77.5076 17.1134 77.4228 17.3137C77.3379 17.514 77.2945 17.7288 77.2951 17.9455V17.9455ZM29.425 6.19553C29.7108 6.1755 29.9975 6.21765 30.2645 6.31896C30.5315 6.42027 30.7722 6.57821 30.9692 6.78137C31.1661 6.98454 31.3145 7.22787 31.4035 7.49382C31.4925 7.75977 31.52 8.0417 31.484 8.31928C31.484 9.68469 30.7284 10.4696 29.425 10.4696H27.8444V6.19545L29.425 6.19553ZM28.5241 9.86512H29.3491C29.5533 9.87703 29.7576 9.84433 29.9472 9.76939C30.1368 9.69445 30.3069 9.57916 30.4451 9.43192C30.5833 9.28467 30.6862 9.10918 30.7462 8.9182C30.8063 8.72723 30.822 8.52559 30.7921 8.32795C30.8198 8.13109 30.8025 7.93069 30.7416 7.74112C30.6806 7.55154 30.5775 7.37748 30.4396 7.23141C30.3017 7.08533 30.1324 6.97086 29.9439 6.89619C29.7554 6.82152 29.5523 6.78851 29.3491 6.79951H28.5241V9.86512ZM32.2517 8.85543C32.231 8.64346 32.2558 8.4296 32.3246 8.22755C32.3934 8.0255 32.5047 7.83974 32.6513 7.68216C32.798 7.52459 32.9767 7.39868 33.176 7.31253C33.3754 7.22637 33.591 7.18187 33.809 7.18187C34.027 7.18187 34.2426 7.22637 34.442 7.31253C34.6413 7.39868 34.82 7.52459 34.9667 7.68216C35.1133 7.83974 35.2246 8.0255 35.2934 8.22755C35.3622 8.4296 35.387 8.64346 35.3663 8.85543C35.3875 9.06764 35.363 9.28184 35.2944 9.48426C35.2258 9.68668 35.1146 9.87284 34.9679 10.0308C34.8212 10.1887 34.6424 10.3149 34.4428 10.4013C34.2432 10.4876 34.0273 10.5323 33.809 10.5323C33.5907 10.5323 33.3748 10.4876 33.1752 10.4013C32.9756 10.3149 32.7968 10.1887 32.6501 10.0308C32.5034 9.87284 32.3922 9.68668 32.3236 9.48426C32.255 9.28184 32.2305 9.06764 32.2517 8.85543ZM34.696 8.85543C34.696 8.15625 34.3744 7.74739 33.8101 7.74739C33.2436 7.74739 32.9249 8.15625 32.9249 8.85543C32.9249 9.56019 33.2437 9.96591 33.8101 9.96591C34.3744 9.96591 34.696 9.5574 34.696 8.85543V8.85543ZM39.5065 10.4695H38.8303L38.1479 8.094H38.0963L37.4167 10.4695H36.7471L35.8369 7.24404H36.4978L37.0894 9.70525H37.1381L37.8171 7.24404H38.4422L39.1212 9.70525H39.1727L39.7614 7.24404H40.4131L39.5065 10.4695ZM41.1787 7.24412H41.806V7.75648H41.8547C41.9373 7.57244 42.0767 7.41816 42.2533 7.31514C42.43 7.21213 42.6351 7.16551 42.8402 7.1818C43.0009 7.17 43.1622 7.19367 43.3123 7.25104C43.4623 7.30842 43.5972 7.39803 43.707 7.51324C43.8167 7.62845 43.8986 7.76631 43.9464 7.9166C43.9942 8.06689 44.0068 8.22577 43.9832 8.38145V10.4695H43.3315V8.54133C43.3315 8.02302 43.1008 7.76522 42.6189 7.76522C42.5098 7.76027 42.4009 7.77841 42.2997 7.8184C42.1984 7.85839 42.1072 7.91929 42.0323 7.99693C41.9574 8.07456 41.9006 8.16709 41.8658 8.26818C41.8309 8.36927 41.8188 8.47652 41.8304 8.58259V10.4695H41.1787V7.24412ZM45.0216 5.98494H45.6733V10.4695H45.0216V5.98494ZM46.5793 8.85543C46.5585 8.64343 46.5833 8.42954 46.6521 8.22747C46.721 8.02539 46.8323 7.8396 46.9789 7.682C47.1256 7.52441 47.3043 7.39849 47.5037 7.31232C47.7031 7.22616 47.9187 7.18164 48.1368 7.18164C48.3548 7.18164 48.5704 7.22616 48.7698 7.31232C48.9692 7.39849 49.1479 7.52441 49.2946 7.682C49.4412 7.8396 49.5525 8.02539 49.6214 8.22747C49.6902 8.42954 49.715 8.64343 49.6942 8.85543C49.7154 9.06761 49.6908 9.28176 49.6221 9.48411C49.5534 9.68647 49.4422 9.87255 49.2955 10.0304C49.1488 10.1883 48.97 10.3144 48.7704 10.4007C48.5709 10.4871 48.355 10.5317 48.1368 10.5317C47.9185 10.5317 47.7027 10.4871 47.5031 10.4007C47.3035 10.3144 47.1247 10.1883 46.978 10.0304C46.8313 9.87255 46.7201 9.68647 46.6514 9.48411C46.5827 9.28176 46.5582 9.06761 46.5793 8.85543V8.85543ZM49.0235 8.85543C49.0235 8.15625 48.7019 7.74739 48.1376 7.74739C47.5711 7.74739 47.2525 8.15625 47.2525 8.85543C47.2525 9.56019 47.5712 9.96591 48.1376 9.96591C48.7019 9.96591 49.0235 9.5574 49.0235 8.85543ZM50.3803 9.5574C50.3803 8.97677 50.8229 8.64204 51.6085 8.59448L52.503 8.54413V8.2657C52.503 7.92503 52.2724 7.7327 51.827 7.7327C51.4632 7.7327 51.211 7.86314 51.1387 8.09121H50.5077C50.5743 7.53715 51.1079 7.18187 51.857 7.18187C52.6849 7.18187 53.1518 7.58443 53.1518 8.2657V10.4695H52.5245V10.0163H52.4729C52.3682 10.1789 52.2213 10.3114 52.047 10.4004C51.8728 10.4893 51.6775 10.5316 51.4811 10.5227C51.3424 10.5368 51.2023 10.5223 51.0698 10.4803C50.9372 10.4382 50.8151 10.3695 50.7114 10.2786C50.6077 10.1876 50.5247 10.0765 50.4676 9.95225C50.4106 9.82804 50.3808 9.69353 50.3803 9.5574V9.5574ZM52.503 9.28177V9.01208L51.6966 9.06244C51.2418 9.09216 51.0355 9.2433 51.0355 9.5276C51.0355 9.81792 51.2934 9.98689 51.6479 9.98689C51.7518 9.99717 51.8567 9.98692 51.9564 9.95677C52.0562 9.92662 52.1487 9.87718 52.2285 9.8114C52.3083 9.74561 52.3737 9.66482 52.4208 9.57383C52.468 9.48284 52.4959 9.38352 52.503 9.28177V9.28177ZM54.0084 8.85543C54.0084 7.83621 54.5448 7.19061 55.3791 7.19061C55.5855 7.18131 55.7903 7.22959 55.9696 7.3298C56.149 7.43001 56.2954 7.578 56.3918 7.75648H56.4405V5.98486H57.0921V10.4695H56.4677V9.95982H56.4161C56.3123 10.1371 56.1608 10.2833 55.978 10.3825C55.7952 10.4817 55.5881 10.5301 55.3792 10.5226C54.539 10.5226 54.0084 9.87694 54.0084 8.85536V8.85543ZM54.6816 8.85543C54.6816 9.53949 55.0118 9.95122 55.5638 9.95122C56.1131 9.95122 56.4526 9.53362 56.4526 8.85815C56.4526 8.18598 56.1096 7.76243 55.5638 7.76243C55.0153 7.76243 54.6816 8.17688 54.6816 8.85543ZM59.7885 8.85543C59.7677 8.64346 59.7926 8.4296 59.8614 8.22755C59.9302 8.0255 60.0415 7.83974 60.1881 7.68216C60.3347 7.52459 60.5135 7.39868 60.7128 7.31253C60.9122 7.22637 61.1278 7.18187 61.3458 7.18187C61.5638 7.18187 61.7794 7.22637 61.9787 7.31253C62.1781 7.39868 62.3568 7.52459 62.5035 7.68216C62.6501 7.83974 62.7614 8.0255 62.8302 8.22755C62.899 8.4296 62.9238 8.64346 62.903 8.85543C62.9243 9.06764 62.8998 9.28184 62.8312 9.48426C62.7626 9.68668 62.6514 9.87284 62.5047 10.0308C62.358 10.1887 62.1791 10.3149 61.9796 10.4013C61.78 10.4876 61.5641 10.5323 61.3458 10.5323C61.1275 10.5323 60.9116 10.4876 60.712 10.4013C60.5124 10.3149 60.3335 10.1887 60.1869 10.0308C60.0402 9.87284 59.929 9.68668 59.8604 9.48426C59.7918 9.28184 59.7673 9.06764 59.7885 8.85543V8.85543ZM62.2328 8.85543C62.2328 8.15625 61.9112 7.74739 61.3469 7.74739C60.7804 7.74739 60.4617 8.15625 60.4617 8.85543C60.4617 9.56019 60.7804 9.96591 61.3469 9.96591C61.9112 9.96591 62.2328 9.5574 62.2328 8.85543ZM63.7775 7.24412H64.4049V7.75648H64.4536C64.5362 7.57244 64.6755 7.41816 64.8522 7.31514C65.0288 7.21213 65.234 7.16551 65.439 7.1818C65.5997 7.17 65.7611 7.19367 65.9111 7.25104C66.0611 7.30842 66.196 7.39803 66.3058 7.51324C66.4156 7.62845 66.4974 7.76631 66.5452 7.9166C66.593 8.06689 66.6056 8.22577 66.582 8.38145V10.4695H65.9303V8.54133C65.9303 8.02302 65.6997 7.76522 65.2177 7.76522C65.1086 7.76027 64.9997 7.77841 64.8985 7.8184C64.7973 7.85839 64.7061 7.91929 64.6312 7.99693C64.5563 8.07456 64.4995 8.16709 64.4646 8.26818C64.4297 8.36927 64.4177 8.47652 64.4292 8.58259V10.4695H63.7776L63.7775 7.24412ZM70.2646 6.44107V7.2588H70.98V7.79495H70.2646V9.45347C70.2646 9.79134 70.4071 9.93933 70.7315 9.93933C70.8145 9.93905 70.8975 9.93412 70.9799 9.92458V10.4549C70.8629 10.4753 70.7443 10.4862 70.6254 10.4874C69.9007 10.4874 69.6121 10.2383 69.6121 9.6165V7.79495H69.0879V7.25873H69.6121V6.44115L70.2646 6.44107ZM71.8702 5.98494H72.5162V7.76243H72.5677C72.6544 7.57667 72.7975 7.42152 72.9777 7.31811C73.1579 7.21471 73.3663 7.16808 73.5746 7.18459C73.7345 7.17609 73.8943 7.20216 74.0426 7.26093C74.191 7.3197 74.3242 7.40972 74.4328 7.52458C74.5414 7.63944 74.6228 7.7763 74.671 7.92539C74.7193 8.07449 74.7332 8.23214 74.7119 8.38711V10.4695H74.0595V8.54413C74.0595 8.02889 73.8138 7.76802 73.3534 7.76802C73.2413 7.75905 73.1287 7.77409 73.0232 7.8121C72.9178 7.8501 72.8222 7.91015 72.743 7.98804C72.6638 8.06592 72.6029 8.15977 72.5648 8.26301C72.5266 8.36625 72.5119 8.4764 72.5219 8.58574V10.4695H71.8702V5.98494ZM78.5119 9.59859C78.4234 9.89339 78.2315 10.1484 77.9699 10.319C77.7083 10.4896 77.3937 10.5649 77.081 10.5318C76.8634 10.5374 76.6472 10.4967 76.4474 10.4125C76.2475 10.3283 76.0688 10.2027 75.9237 10.0443C75.7786 9.88588 75.6705 9.69852 75.6069 9.49522C75.5433 9.29192 75.5258 9.07754 75.5555 8.86696C75.5266 8.65573 75.5444 8.44088 75.6078 8.23696C75.6712 8.03304 75.7788 7.84481 75.9231 7.68502C76.0675 7.52522 76.2454 7.3976 76.4446 7.31078C76.6439 7.22396 76.8599 7.17997 77.0781 7.1818C77.9969 7.1818 78.5513 7.79495 78.5513 8.80779V9.02992H76.2194V9.06559C76.2092 9.18395 76.2245 9.3031 76.2642 9.41537C76.3038 9.52765 76.3671 9.63059 76.4499 9.71759C76.5327 9.80459 76.6332 9.87372 76.745 9.92057C76.8567 9.96741 76.9773 9.99093 77.0989 9.98962C77.2548 10.0079 77.4127 9.98048 77.5526 9.91086C77.6925 9.84123 77.808 9.73253 77.8845 9.59859H78.5119ZM76.2194 8.55917H77.8874C77.8956 8.45092 77.8805 8.34218 77.8431 8.23996C77.8058 8.13773 77.7469 8.04427 77.6704 7.96558C77.5938 7.88689 77.5013 7.82471 77.3986 7.78304C77.296 7.74137 77.1856 7.72112 77.0745 7.72361C76.9618 7.72222 76.85 7.74289 76.7455 7.78439C76.6411 7.8259 76.5463 7.8874 76.4666 7.96527C76.3869 8.04314 76.324 8.13581 76.2815 8.23781C76.2391 8.33981 76.218 8.44907 76.2194 8.55917V8.55917Z" fill="white"/>
</svg>
