<svg width="92" height="28" viewBox="0 0 92 28" fill="none" xmlns="http://www.w3.org/2000/svg">
<path d="M88.5926 27.1035H3.40741C1.53336 27.1035 0 25.5848 0 23.7285V3.47853C0 1.62226 1.53333 0.103516 3.40741 0.103516H88.5926C90.4666 0.103516 92 1.62226 92 3.47853V23.7285C92 25.5848 90.4667 27.1035 88.5926 27.1035" fill="black"/>
<path d="M88.5926 0.103516H3.40741C1.53336 0.103516 0 1.62226 0 3.47853V23.7285C0 25.5848 1.53333 27.1035 3.40741 27.1035H88.5926C90.4666 27.1035 92 25.5848 92 23.7285V3.47853C92 1.62226 90.4667 0.103516 88.5926 0.103516H88.5926ZM88.5926 0.643499C90.1709 0.643499 91.4548 1.91549 91.4548 3.47853V23.7285C91.4548 25.2918 90.1709 26.5638 88.5926 26.5638H3.40741C1.82939 26.5638 0.545191 25.2918 0.545191 23.7285V3.47853C0.545191 1.91549 1.82936 0.643529 3.40741 0.643529H88.5926" fill="#A6A6A6"/>
<path d="M32.3148 7.01783C32.3148 7.58335 32.1458 8.03369 31.8071 8.36963C31.4225 8.7691 30.9212 8.96898 30.3049 8.96898C29.7148 8.96898 29.213 8.76649 28.8003 8.36093C28.387 7.95567 28.1807 7.45312 28.1807 6.85353C28.1807 6.25366 28.387 5.75141 28.8003 5.34582C29.213 4.94059 29.7148 4.73779 30.3049 4.73779C30.5978 4.73779 30.8781 4.79452 31.1443 4.90764C31.4105 5.02104 31.624 5.17157 31.7837 5.36008L31.4243 5.71628C31.1536 5.39593 30.7809 5.23588 30.3049 5.23588C29.8745 5.23588 29.5023 5.38568 29.1882 5.68546C28.8741 5.98555 28.7171 6.3747 28.7171 6.85353C28.7171 7.33238 28.8741 7.7215 29.1882 8.02162C29.5023 8.3214 29.8745 8.47117 30.3049 8.47117C30.7615 8.47117 31.1422 8.32058 31.447 8.01898C31.6448 7.82249 31.7592 7.54938 31.7898 7.19866H30.3049V6.71219H32.2863C32.3055 6.81797 32.3148 6.91948 32.3148 7.01783" fill="white"/>
<path d="M32.3147 7.01843H32.2465C32.246 7.57106 32.083 8.00029 31.7588 8.32252L31.7581 8.32306L31.7578 8.32361C31.3854 8.7093 30.9066 8.90127 30.3048 8.90209C29.7304 8.90127 29.2496 8.70721 28.8481 8.31381C28.4475 7.91963 28.2494 7.4384 28.2487 6.85413C28.2494 6.26958 28.4475 5.78863 28.8481 5.39472C29.2496 5.00105 29.7304 4.80671 30.3048 4.8059C30.5888 4.8059 30.8593 4.8608 31.1172 4.9702C31.3754 5.08044 31.5794 5.2249 31.7314 5.40424L31.7836 5.36068L31.7354 5.31296L31.376 5.66941L31.4242 5.71689L31.4766 5.67369C31.1933 5.33748 30.7957 5.16799 30.3048 5.16899C29.8584 5.16844 29.4657 5.32643 29.1409 5.63759C28.813 5.94975 28.6482 6.3608 28.6488 6.85413C28.6482 7.34749 28.813 7.75851 29.1409 8.0707C29.4657 8.38186 29.8584 8.53982 30.3048 8.53927C30.7765 8.54009 31.1785 8.38158 31.495 8.0673C31.7064 7.85738 31.8262 7.5666 31.8576 7.20506L31.8639 7.13177H30.3729V6.78029H32.2862V6.71279L32.2191 6.72465C32.2377 6.82701 32.2465 6.92427 32.2465 7.01843H32.3828C32.3828 6.91583 32.3732 6.81038 32.3532 6.70072L32.3431 6.6453H30.2367V7.26676H31.7897V7.19926L31.7218 7.19347C31.6918 7.53311 31.5826 7.78888 31.3986 7.97189C31.1058 8.26085 30.7464 8.40346 30.3048 8.40427C29.8903 8.40373 29.5387 8.26239 29.2355 7.97368C28.9352 7.68601 28.7858 7.31873 28.7851 6.85413C28.7858 6.38953 28.9352 6.02225 29.2355 5.73458C29.5387 5.44587 29.8903 5.30453 30.3048 5.30398C30.7656 5.30508 31.1136 5.45588 31.3721 5.76042L31.42 5.81685L31.8318 5.40843L31.876 5.36469L31.8357 5.31742C31.6683 5.11972 31.4452 4.96279 31.171 4.8463C30.8963 4.72945 30.6064 4.6709 30.3048 4.6709C29.6989 4.67038 29.1761 4.88131 28.752 5.29874C28.3264 5.71534 28.1118 6.239 28.1124 6.85413C28.1118 7.46898 28.3264 7.99295 28.7523 8.4098C29.1761 8.82695 29.6989 9.03763 30.3048 9.03709C30.9357 9.03763 31.4591 8.83007 31.8563 8.4169L31.807 8.37024L31.8552 8.41799C32.2082 8.06861 32.3833 7.59664 32.3828 7.01843H32.3147H32.3147ZM35.4558 5.32668H33.5938V6.6108H35.273V7.09746H33.5938V8.38158H35.4558V8.87913H33.0688V4.82913H35.4558V5.32668" fill="white"/>
<path d="M35.456 5.32578V5.25828H33.5258V6.67741H35.205V7.02888L33.5258 7.02906V8.44819H35.3879V8.81074H33.1372V4.89574H35.3879V5.32578H35.456V5.25828V5.32578H35.5242V4.76074H33.0009V8.94573H35.5242V8.31319H33.6621V7.16406H35.3413V6.54241H33.6621V5.39328H35.5242V5.32578H35.456V5.32578ZM37.6716 8.87826H37.1459V5.32575H36.0039V4.82821H38.8137V5.32575H37.6716V8.8782" fill="white"/>
<path d="M37.6715 8.87826V8.81074H37.2139V5.25829H36.0718V4.89577H38.7453V5.25829H37.6033V8.87823H37.6715V8.81074V8.87823H37.7396V5.39328H38.8816V4.76074H35.9355V5.39325H37.0776V8.9457H37.7396V8.8782H37.6715V8.87826ZM40.8465 8.87826V4.82821H41.3717V8.8782H40.8465" fill="white"/>
<path d="M40.8466 8.87826H40.9147V4.89574H41.3036V8.81074H40.8466V8.87823H40.9147H40.8466V8.94573H41.4399V4.76074H40.7784V8.94573H40.8466V8.87823V8.87826ZM43.7024 8.87826H43.1766V5.32575H42.0347V4.82821H44.8444V5.32575H43.7024V8.8782" fill="white"/>
<path d="M43.7023 8.87855V8.81102H43.2447V5.25857H42.1027V4.89606H44.7762V5.25857H43.6342V8.87852H43.7023V8.81102V8.87852H43.7705V5.39357H44.9125V4.76103H41.9664V5.39354H43.1084V8.94599H43.7705V8.87849H43.7023V8.87855ZM47.5532 8.0161C47.8559 8.31955 48.2262 8.47114 48.6641 8.47114C49.102 8.47114 49.4725 8.31955 49.7747 8.0161C50.0776 7.71261 50.2294 7.32468 50.2294 6.85353C50.2294 6.38241 50.0776 5.99447 49.7747 5.69098C49.4725 5.3875 49.102 5.23588 48.6641 5.23588C48.2262 5.23588 47.8559 5.3875 47.5532 5.69098C47.2511 5.99447 47.0994 6.38237 47.0994 6.85353C47.0994 7.32468 47.2511 7.71261 47.5532 8.0161ZM50.1633 8.35513C49.7614 8.76458 49.2614 8.96898 48.6641 8.96898C48.0662 8.96898 47.5665 8.76458 47.1654 8.35513C46.7631 7.94614 46.5629 7.4455 46.5629 6.85353C46.5629 6.26155 46.7631 5.76082 47.1654 5.35192C47.5665 4.94238 48.0662 4.73779 48.6641 4.73779C49.2583 4.73779 49.7568 4.94347 50.1607 5.35456C50.564 5.76561 50.7658 6.26525 50.7658 6.85353C50.7658 7.4455 50.5645 7.94614 50.1633 8.35513Z" fill="white"/>
<path d="M47.5533 8.01621L47.5048 8.06366C47.8187 8.37928 48.2103 8.5396 48.6642 8.53878C49.1178 8.5396 49.5099 8.37928 49.8232 8.06366C50.1392 7.74774 50.2981 7.33905 50.2976 6.85364C50.298 6.36826 50.1392 5.95955 49.8232 5.64363C49.5099 5.32801 49.1178 5.16771 48.6642 5.1685C48.2103 5.16771 47.8187 5.32801 47.5048 5.64363C47.1896 5.95955 47.0304 6.36826 47.0313 6.85364C47.0304 7.33902 47.1896 7.74774 47.5048 8.06366L47.5533 8.01621L47.6018 7.96874C47.3127 7.67736 47.1681 7.31084 47.1676 6.85364C47.1681 6.39648 47.3127 6.02996 47.6017 5.73855C47.8935 5.44723 48.2419 5.30432 48.6642 5.30353C49.0861 5.30432 49.4353 5.44723 49.7263 5.73855C50.0159 6.02996 50.1605 6.39648 50.161 6.85364C50.1605 7.31081 50.0159 7.67736 49.7263 7.96874C49.4353 8.26009 49.0861 8.40297 48.6642 8.40376C48.2419 8.40297 47.8935 8.26009 47.6017 7.96874L47.5533 8.01621ZM50.1634 8.35525L50.1147 8.30835C49.7239 8.7049 49.2461 8.90081 48.6642 8.9016C48.082 8.90078 47.6041 8.7049 47.2141 8.30835L47.2123 8.30623L47.2141 8.30835C46.8242 7.91043 46.6317 7.43057 46.6312 6.85364C46.6317 6.27671 46.8242 5.79685 47.2141 5.39896C47.6041 5.00238 48.0819 4.80623 48.6642 4.80544C49.2423 4.80623 49.7191 5.0032 50.112 5.40185C50.5033 5.80159 50.6969 6.28068 50.6977 6.85364C50.6969 7.43057 50.5039 7.91043 50.1147 8.30835L50.1634 8.35525L50.2124 8.40215C50.6255 7.9819 50.8345 7.46061 50.834 6.85364C50.8345 6.25014 50.6247 5.7299 50.2097 5.30777C49.7945 4.88398 49.2743 4.66968 48.6642 4.67041C48.0508 4.66968 47.5291 4.88298 47.1164 5.30513V5.30483C46.7025 5.72538 46.4943 6.24668 46.4949 6.85364C46.4943 7.46061 46.7025 7.9819 47.1164 8.40242L47.1183 8.40433L47.1164 8.40215C47.5291 8.82431 48.0508 9.03715 48.6642 9.0366C49.2772 9.03715 49.799 8.82431 50.2124 8.40215L50.1634 8.35525V8.35525ZM51.5032 8.87867V4.82861H52.1427L54.1298 7.97923H54.1525L54.1298 7.19875V4.82861H54.6556V8.87861H54.1072L52.0282 5.57531H52.0055L52.0282 6.35607V8.87861H51.5032" fill="white"/>
<path d="M51.5033 8.87826H51.5714V4.89574H52.1049L54.0921 8.04636H54.2225L54.198 7.19737V4.89577H54.5875V8.81074H54.1451L52.066 5.50744H51.9356L51.9601 6.35679V8.81074H51.5033V8.87823H51.5714H51.5033V8.94573H52.0964V6.35463L52.0738 5.57311L52.0056 5.57493V5.64243H52.0282V5.57493L51.9704 5.61082L54.0695 8.94573H54.7238V4.76074H54.0618V7.19916L54.0844 7.98068L54.1525 7.97886V7.91136H54.1299V7.97886L54.1877 7.94303L52.1804 4.76074H51.4351V8.94573H51.5033V8.87823L51.5033 8.87826ZM72.875 20.3532H74.1466V11.9149H72.8749L72.875 20.3532ZM84.3286 14.9546L82.8709 18.613H82.8273L81.3144 14.9546H79.9446L82.2133 20.0679L80.9198 22.9122H82.2467L85.7427 14.9546L84.3286 14.9546ZM77.1172 19.3948C76.7001 19.3948 76.1195 19.1886 76.1195 18.6782C76.1195 18.0269 76.8432 17.7772 77.4674 17.7772C78.027 17.7772 78.2893 17.8966 78.6294 18.0596C78.5306 18.8411 77.8511 19.3948 77.1172 19.3948V19.3948ZM77.2705 14.77C76.3498 14.77 75.3964 15.1718 75.0019 16.062L76.1304 16.5287C76.3716 16.062 76.8207 15.9098 77.2923 15.9098C77.9499 15.9098 78.6185 16.3009 78.6294 16.9957V17.0824C78.399 16.9521 77.9063 16.7568 77.3032 16.7568C76.0868 16.7568 74.8478 17.4188 74.8478 18.6565C74.8478 19.7856 75.8455 20.513 76.9632 20.513C77.8184 20.513 78.2893 20.1331 78.5858 19.688H78.6294V20.3393H79.8567V17.104C79.8567 15.6061 78.7282 14.77 77.2705 14.77V14.77ZM69.4117 15.9818H67.603V13.0894H69.4117C70.3623 13.0894 70.9021 13.869 70.9021 14.5356C70.9021 15.1895 70.3623 15.9818 69.4117 15.9818ZM69.379 11.9149H66.332V20.3532H67.603V17.1562H69.379C70.7883 17.1562 72.1737 16.1456 72.1737 14.5356C72.1737 12.9256 70.7883 11.9149 69.379 11.9149V11.9149ZM52.7637 19.3964C51.8852 19.3964 51.1497 18.6679 51.1497 17.6672C51.1497 16.6561 51.8852 15.9165 52.7637 15.9165C53.6311 15.9165 54.3117 16.6561 54.3117 17.6672C54.3117 18.6679 53.6311 19.3964 52.7638 19.3964H52.7637ZM54.2239 15.4271H54.1799C53.8946 15.0901 53.3454 14.7856 52.6538 14.7856C51.2046 14.7856 49.8762 16.047 49.8762 17.6672C49.8762 19.2767 51.2045 20.5273 52.6538 20.5273C53.3454 20.5273 53.8946 20.2227 54.1799 19.8749H54.2239V20.2881C54.2239 21.3866 53.6311 21.9738 52.6759 21.9738C51.8964 21.9738 51.4133 21.419 51.2155 20.9515L50.1068 21.4082C50.4252 22.1694 51.2706 23.1047 52.6759 23.1047C54.169 23.1047 55.4316 22.2345 55.4316 20.1141V14.9596H54.2239V15.4271ZM56.3098 20.3532H57.5834V11.9146H56.3098V20.3532ZM59.4609 17.5694C59.4279 16.4601 60.3282 15.8948 60.9759 15.8948C61.4812 15.8948 61.9092 16.1448 62.0516 16.5039L59.4609 17.5694ZM63.4133 16.6125C63.172 15.9707 62.436 14.7856 60.9319 14.7856C59.4388 14.7856 58.1983 15.9491 58.1983 17.6564C58.1983 19.2659 59.4279 20.5273 61.0746 20.5273C62.4033 20.5273 63.172 19.7225 63.4903 19.255L62.5021 18.6024C62.1729 19.081 61.7225 19.3964 61.0746 19.3964C60.4269 19.3964 59.9659 19.1027 59.6693 18.5265L63.5448 16.9387L63.4133 16.6125ZM32.5365 15.6665V16.8844H35.4788C35.391 17.5694 35.1604 18.0696 34.8091 18.4176C34.381 18.8419 33.7113 19.3094 32.5365 19.3094C30.7249 19.3094 29.3088 17.8631 29.3088 16.0688C29.3088 14.2745 30.725 12.8281 32.5365 12.8281C33.5137 12.8281 34.2272 13.2088 34.7542 13.6981L35.6215 12.8391C34.886 12.143 33.9088 11.6102 32.5365 11.6102C30.0552 11.6102 27.9692 13.6112 27.9692 16.0688C27.9692 18.5265 30.0552 20.5273 32.5365 20.5273C33.8761 20.5273 34.886 20.0925 35.6764 19.2767C36.4889 18.4719 36.7415 17.3411 36.7415 16.4277C36.7415 16.1448 36.7196 15.884 36.6755 15.6665H32.5365ZM40.0866 19.3964C39.2081 19.3964 38.4505 18.6786 38.4505 17.6564C38.4505 16.6233 39.2081 15.9165 40.0866 15.9165C40.9648 15.9165 41.7224 16.6233 41.7224 17.6564C41.7224 18.6787 40.9648 19.3964 40.0866 19.3964ZM40.0866 14.7856C38.4835 14.7856 37.177 15.9926 37.177 17.6564C37.177 19.3094 38.4835 20.5273 40.0866 20.5273C41.6894 20.5273 42.9959 19.3094 42.9959 17.6564C42.9959 15.9926 41.6894 14.7856 40.0866 14.7856ZM46.4334 19.3964C45.5552 19.3964 44.7975 18.6786 44.7975 17.6564C44.7975 16.6233 45.5552 15.9165 46.4334 15.9165C47.3116 15.9165 48.0692 16.6233 48.0692 17.6564C48.0692 18.6787 47.3116 19.3964 46.4334 19.3964H46.4334ZM46.4334 14.7856C44.8303 14.7856 43.5241 15.9926 43.5241 17.6564C43.5241 19.3094 44.8303 20.5273 46.4334 20.5273C48.0362 20.5273 49.3428 19.3094 49.3428 17.6564C49.3428 15.9926 48.0362 14.7856 46.4334 14.7856H46.4334Z" fill="white"/>
<path d="M7.16147 5.24109C6.93278 5.44546 6.79626 5.78635 6.79626 6.23885V6.13655V21.0683V20.9699C6.79626 21.3878 6.91336 21.7105 7.11165 21.9184L7.16227 21.9664V21.9666C7.32277 22.11 7.52859 22.1862 7.76446 22.186C7.99494 22.186 8.25425 22.1132 8.52792 21.9595L18.4198 16.3926L21.8175 14.4802C22.2491 14.2374 22.4913 13.9241 22.5318 13.605V13.6037C22.4913 13.2839 22.2491 12.9709 21.8176 12.7281L18.4195 10.8159L8.52795 5.24898C8.2537 5.09502 7.9942 5.02197 7.76311 5.02197C7.52751 5.02197 7.32198 5.0979 7.16154 5.24109H7.16147Z" fill="#00C1FF"/>
<path d="M7.1623 21.9668L7.11165 21.9188C6.91336 21.711 6.79626 21.3883 6.79626 20.9704V21.0687V6.14068V6.23928C6.79626 5.78678 6.93278 5.4459 7.16147 5.24152L15.6049 13.6044L7.1623 21.9668Z" fill="url(#paint0_linear)"/>
<path d="M18.4196 16.3926L15.6047 13.604L18.4193 10.8159L21.8174 12.7281C22.2489 12.9709 22.4912 13.2839 22.5317 13.6037V13.605C22.4912 13.9241 22.2489 14.2374 21.8174 14.4802L18.4196 16.3925" fill="url(#paint1_linear)"/>
<path d="M7.76448 22.186C7.52864 22.1862 7.32282 22.11 7.16235 21.9666V21.9664L15.605 13.604L18.4198 16.3926L8.52794 21.9595C8.25427 22.1133 7.99496 22.186 7.76448 22.186Z" fill="url(#paint2_linear)"/>
<path d="M15.6048 13.604L7.16138 5.24109C7.32188 5.09791 7.52741 5.02198 7.76298 5.02198C7.99407 5.02198 8.2536 5.09499 8.52782 5.24898L18.4194 10.8159L15.6048 13.604" fill="url(#paint3_linear)"/>
<path d="M7.76459 22.2852C7.52875 22.2852 7.32266 22.209 7.16216 22.0655L7.16188 22.0658C7.16122 22.0651 7.16051 22.0645 7.15977 22.0639L7.11587 22.0215C7.11449 22.0201 7.1132 22.0186 7.11157 22.017L7.16219 21.9669C7.32269 22.1103 7.52847 22.1865 7.76438 22.1863C7.99482 22.1863 8.25414 22.1135 8.5278 21.9598L18.4196 16.3929L18.483 16.4557L18.4189 16.4918L8.52777 22.0584C8.27837 22.1984 8.04115 22.2714 7.82687 22.2836C7.80612 22.2846 7.78536 22.2851 7.76459 22.2851" fill="url(#paint4_linear)"/>
<path d="M7.11165 22.0166C6.91336 21.8088 6.79626 21.4863 6.79626 21.0682V20.9698C6.79626 21.3877 6.91336 21.7104 7.11165 21.9183L7.16227 21.9662L7.11165 22.0166" fill="url(#paint5_linear)"/>
<path d="M18.4831 16.4555L18.4197 16.3927L21.8175 14.4804C22.249 14.2376 22.4912 13.9243 22.5317 13.6052C22.5317 13.7223 22.5054 13.8394 22.453 13.9533C22.3472 14.183 22.1354 14.4 21.8175 14.579L18.4831 16.4556" fill="url(#paint6_linear)"/>
<path d="M22.5318 13.6035C22.4913 13.2837 22.249 12.9707 21.8175 12.7278L18.4194 10.8157L18.4828 10.7529H18.4831L21.8175 12.6295C22.2933 12.8974 22.5315 13.2504 22.5318 13.6035" fill="url(#paint7_linear)"/>
<path d="M6.79626 6.23926V6.13611C6.79626 6.09892 6.79728 6.06255 6.79921 6.02724V6.02563C6.79921 6.02515 6.79921 6.02463 6.79939 6.02408V6.02011C6.81992 5.66017 6.93278 5.37941 7.11165 5.19193L7.16147 5.24147C6.93278 5.44588 6.79626 5.78676 6.79626 6.23926Z" fill="url(#paint8_linear)"/>
<path d="M18.4194 10.8164L8.5278 5.24942C8.25358 5.09547 7.99409 5.02245 7.763 5.02245C7.5274 5.02245 7.32186 5.09838 7.16139 5.24157L7.11157 5.192C7.12713 5.17568 7.1433 5.15995 7.16004 5.14483C7.16056 5.14428 7.16139 5.14373 7.16191 5.14322C7.32113 5.00112 7.52448 4.92519 7.75797 4.92383H7.763C7.99409 4.92383 8.25358 4.99688 8.5278 5.15089L18.483 10.7534L18.4828 10.7536L18.4194 10.8164" fill="url(#paint9_linear)"/>
<defs>
<linearGradient id="paint0_linear" x1="12.1921" y1="5.98291" x2="4.9972" y2="13.2704" gradientUnits="userSpaceOnUse">
<stop stop-color="#00A0FF"/>
<stop offset="0.00657" stop-color="#00A1FF"/>
<stop offset="0.2601" stop-color="#00BEFF"/>
<stop offset="0.5122" stop-color="#00D2FF"/>
<stop offset="0.7604" stop-color="#00DFFF"/>
<stop offset="1" stop-color="#00E3FF"/>
</linearGradient>
<linearGradient id="paint1_linear" x1="23.0574" y1="13.5558" x2="6.5676" y2="13.5558" gradientUnits="userSpaceOnUse">
<stop stop-color="#FFE000"/>
<stop offset="0.4087" stop-color="#FFBD00"/>
<stop offset="0.7754" stop-color="#FFA500"/>
<stop offset="1" stop-color="#FF9C00"/>
</linearGradient>
<linearGradient id="paint2_linear" x1="16.9254" y1="16.2553" x2="4.73203" y2="28.5153" gradientUnits="userSpaceOnUse">
<stop stop-color="#FF3A44"/>
<stop offset="1" stop-color="#C31162"/>
</linearGradient>
<linearGradient id="paint3_linear" x1="4.98526" y1="4.00125" x2="10.4195" y2="9.47356" gradientUnits="userSpaceOnUse">
<stop stop-color="#32A071"/>
<stop offset="0.0685" stop-color="#2DA771"/>
<stop offset="0.4762" stop-color="#15CF74"/>
<stop offset="0.8009" stop-color="#06E775"/>
<stop offset="1" stop-color="#00F076"/>
</linearGradient>
<linearGradient id="paint4_linear" x1="16.9191" y1="18.1899" x2="7.15485" y2="28.0798" gradientUnits="userSpaceOnUse">
<stop stop-color="#CC2E36"/>
<stop offset="1" stop-color="#9C0E4E"/>
</linearGradient>
<linearGradient id="paint5_linear" x1="7.92106" y1="5.98233" x2="1.58243" y2="12.4026" gradientUnits="userSpaceOnUse">
<stop stop-color="#008DE0"/>
<stop offset="0.00657" stop-color="#008DE0"/>
<stop offset="0.2601" stop-color="#00A7E0"/>
<stop offset="0.5122" stop-color="#00B8E0"/>
<stop offset="0.7604" stop-color="#00C4E0"/>
<stop offset="1" stop-color="#00C7E0"/>
</linearGradient>
<linearGradient id="paint6_linear" x1="23.0575" y1="13.6046" x2="6.56767" y2="13.6046" gradientUnits="userSpaceOnUse">
<stop stop-color="#E0C500"/>
<stop offset="0.4087" stop-color="#E0A600"/>
<stop offset="0.7754" stop-color="#E09100"/>
<stop offset="1" stop-color="#E08900"/>
</linearGradient>
<linearGradient id="paint7_linear" x1="23.0575" y1="13.6042" x2="6.56775" y2="13.6042" gradientUnits="userSpaceOnUse">
<stop stop-color="#FFE840"/>
<stop offset="0.4087" stop-color="#FFCE40"/>
<stop offset="0.7754" stop-color="#FFBC40"/>
<stop offset="1" stop-color="#FFB540"/>
</linearGradient>
<linearGradient id="paint8_linear" x1="7.9141" y1="5.99436" x2="1.80586" y2="11.9132" gradientUnits="userSpaceOnUse">
<stop stop-color="#40B8FF"/>
<stop offset="0.00657" stop-color="#40B9FF"/>
<stop offset="0.2601" stop-color="#40CEFF"/>
<stop offset="0.5122" stop-color="#40DDFF"/>
<stop offset="0.7604" stop-color="#40E7FF"/>
<stop offset="1" stop-color="#40EAFF"/>
</linearGradient>
<linearGradient id="paint9_linear" x1="4.97294" y1="5.77032" x2="9.33311" y2="10.1866" gradientUnits="userSpaceOnUse">
<stop stop-color="#65B895"/>
<stop offset="0.0685" stop-color="#62BD95"/>
<stop offset="0.4762" stop-color="#50DB97"/>
<stop offset="0.8009" stop-color="#44ED98"/>
<stop offset="1" stop-color="#40F498"/>
</linearGradient>
</defs>
</svg>
