<svg width="93" height="28" viewBox="0 0 93 28" fill="none" xmlns="http://www.w3.org/2000/svg">
<path d="M85.6373 0.964854L8.31515 1.0327C8.0333 1.03295 7.75483 1.03319 7.47368 1.03478C7.23841 1.03634 7.00498 1.04044 6.76741 1.04395C6.2513 1.04972 5.73644 1.08992 5.2273 1.16422C4.71888 1.24012 4.22644 1.38281 3.76665 1.58746C3.30743 1.79385 2.88791 2.06187 2.52331 2.3818C2.15678 2.70081 1.85134 3.06944 1.61874 3.47351C1.38549 3.87682 1.22389 4.30892 1.13954 4.75489C1.05438 5.20029 1.00874 5.65078 1.00305 6.10233C0.996091 6.30868 0.995514 6.51569 0.991938 6.72209L1.00629 22.2776C1.01025 22.4866 1.01121 22.689 1.01855 22.8981C1.02508 23.3496 1.07154 23.8 1.15752 24.2452C1.24247 24.6912 1.40487 25.1233 1.63909 25.5263C1.87232 25.9287 2.17848 26.2953 2.54566 26.6119C2.90948 26.9326 3.32977 27.2001 3.79047 27.4041C4.25063 27.6085 4.74328 27.7512 5.25191 27.8273C5.76127 27.9001 6.27615 27.9395 6.79223 27.945C7.02974 27.9493 7.26324 27.9517 7.49859 27.9515C7.77967 27.9526 8.05814 27.9524 8.33999 27.9521L85.662 27.8843C85.9383 27.8841 86.219 27.8838 86.4952 27.8822C86.7295 27.882 86.9697 27.8792 87.2038 27.8744C87.7189 27.8683 88.2328 27.8281 88.741 27.7541C89.2511 27.6765 89.7452 27.533 90.2072 27.3283C90.6671 27.1233 91.0866 26.8552 91.4495 26.5339C91.8151 26.2154 92.1213 25.8485 92.3567 25.4467C92.5884 25.043 92.7484 24.6107 92.8313 24.1647C92.9166 23.7193 92.9639 23.2689 92.9727 22.8174C92.9756 22.6083 92.9754 22.4059 92.9752 22.1969C92.9812 21.9524 92.9809 21.7093 92.9807 21.4608L92.9677 7.37616C92.9675 7.12964 92.9673 6.88522 92.9609 6.6414C92.9607 6.43499 92.9605 6.22798 92.9572 6.02158C92.9476 5.57 92.8995 5.11969 92.8133 4.67439C92.7294 4.22886 92.5686 3.79712 92.3363 3.39398C91.8611 2.58482 91.1082 1.92648 90.1834 1.51157C89.721 1.30823 89.2266 1.16644 88.7164 1.09089C88.2081 1.01718 87.6942 0.977874 87.179 0.973327C86.9448 0.970235 86.7046 0.966475 86.4704 0.965402C86.1942 0.964298 85.9135 0.964544 85.6372 0.964787L85.6373 0.964854Z" fill="#A6A6A6"/>
<path d="M7.50198 27.3652C7.26779 27.3654 7.03928 27.363 6.80692 27.3587C6.32561 27.3536 5.8454 27.3174 5.37022 27.2504C4.92713 27.1841 4.49784 27.0603 4.09652 26.8833C3.69887 26.7078 3.33611 26.4775 3.02214 26.2012C2.70362 25.9282 2.43834 25.6115 2.23683 25.2636C2.03313 24.9134 1.89203 24.538 1.81845 24.1504C1.73902 23.734 1.69587 23.3129 1.68939 22.8907C1.68433 22.749 1.67752 22.2773 1.67752 22.2773L1.66315 6.75584C1.66315 6.75584 1.66949 6.29127 1.6739 6.15474C1.67936 5.73325 1.7215 5.31273 1.79994 4.89682C1.87294 4.50807 2.01347 4.13135 2.21664 3.77969C2.41673 3.43166 2.67992 3.11423 2.99599 2.83968C3.31172 2.56253 3.67523 2.33039 4.07325 2.15172C4.47333 1.97459 4.90158 1.85102 5.34365 1.78515C5.82028 1.71662 6.3021 1.67939 6.78508 1.67377L7.47858 1.66483L86.4675 1.59573L87.1692 1.60365C87.6479 1.6082 88.1254 1.6443 88.5978 1.71165C89.0445 1.77758 89.4774 1.90127 89.8824 2.07866C90.6804 2.43732 91.33 3.0053 91.7401 3.70298C91.9407 4.05188 92.0797 4.42531 92.1525 4.81059C92.2327 5.22977 92.2777 5.6535 92.2873 6.07843C92.2897 6.26871 92.2899 6.4731 92.2901 6.67655C92.2965 6.92851 92.2967 7.16831 92.2969 7.41013L92.31 21.4722C92.3102 21.7163 92.3104 21.9544 92.3045 22.1946C92.3047 22.4131 92.3049 22.6133 92.302 22.8193C92.2934 23.2366 92.2498 23.6529 92.1717 24.0648C92.1003 24.4552 91.9607 24.8338 91.7577 25.1872C91.5554 25.5317 91.2923 25.8461 90.978 26.1189C90.6643 26.3972 90.3013 26.6295 89.9031 26.8069C89.4995 26.986 89.0675 27.1109 88.6214 27.1774C88.1463 27.2457 87.6661 27.2827 87.1848 27.2883C86.9549 27.2932 86.725 27.2958 86.4951 27.2961L85.6619 27.2981L7.50198 27.3652Z" fill="black"/>
<path d="M26.4951 12V7.73438H27.6992C28.0703 7.73438 28.3984 7.81641 28.6836 7.98047C28.9688 8.14453 29.1885 8.37793 29.3428 8.68066C29.499 8.9834 29.5781 9.33105 29.5801 9.72363V9.99609C29.5801 10.3984 29.502 10.751 29.3457 11.0537C29.1914 11.3564 28.9697 11.5889 28.6807 11.751C28.3936 11.9131 28.0586 11.9961 27.6758 12H26.4951ZM27.0576 8.19727V11.54H27.6494C28.083 11.54 28.4199 11.4053 28.6602 11.1357C28.9023 10.8662 29.0234 10.4824 29.0234 9.98438V9.73535C29.0234 9.25098 28.9092 8.875 28.6807 8.60742C28.4541 8.33789 28.1318 8.20117 27.7139 8.19727H27.0576ZM30.2041 10.3857C30.2041 10.0752 30.2646 9.7959 30.3857 9.54785C30.5088 9.2998 30.6787 9.1084 30.8955 8.97363C31.1143 8.83887 31.3633 8.77148 31.6426 8.77148C32.0742 8.77148 32.4229 8.9209 32.6885 9.21973C32.9561 9.51855 33.0898 9.91602 33.0898 10.4121V10.4502C33.0898 10.7588 33.0303 11.0361 32.9111 11.2822C32.7939 11.5264 32.625 11.7168 32.4043 11.8535C32.1855 11.9902 31.9336 12.0586 31.6484 12.0586C31.2188 12.0586 30.8701 11.9092 30.6025 11.6104C30.3369 11.3115 30.2041 10.916 30.2041 10.4238V10.3857ZM30.749 10.4502C30.749 10.8018 30.8301 11.084 30.9922 11.2969C31.1562 11.5098 31.375 11.6162 31.6484 11.6162C31.9238 11.6162 32.1426 11.5088 32.3047 11.2939C32.4668 11.0771 32.5479 10.7744 32.5479 10.3857C32.5479 10.0381 32.4648 9.75684 32.2988 9.54199C32.1348 9.3252 31.916 9.2168 31.6426 9.2168C31.375 9.2168 31.1592 9.32324 30.9951 9.53613C30.8311 9.74902 30.749 10.0537 30.749 10.4502ZM36.5762 11.2529L37.1855 8.83008H37.7275L36.8047 12H36.3652L35.5947 9.59766L34.8447 12H34.4053L33.4854 8.83008H34.0244L34.6484 11.2031L35.3867 8.83008H35.8232L36.5762 11.2529ZM38.7939 8.83008L38.8115 9.22852C39.0537 8.92383 39.3701 8.77148 39.7607 8.77148C40.4307 8.77148 40.7686 9.14941 40.7744 9.90527V12H40.2324V9.90234C40.2305 9.67383 40.1777 9.50488 40.0742 9.39551C39.9727 9.28613 39.8135 9.23145 39.5967 9.23145C39.4209 9.23145 39.2666 9.27832 39.1338 9.37207C39.001 9.46582 38.8975 9.58887 38.8232 9.74121V12H38.2812V8.83008H38.7939ZM42.1807 12H41.6387V7.5H42.1807V12ZM42.9072 10.3857C42.9072 10.0752 42.9678 9.7959 43.0889 9.54785C43.2119 9.2998 43.3818 9.1084 43.5986 8.97363C43.8174 8.83887 44.0664 8.77148 44.3457 8.77148C44.7773 8.77148 45.126 8.9209 45.3916 9.21973C45.6592 9.51855 45.793 9.91602 45.793 10.4121V10.4502C45.793 10.7588 45.7334 11.0361 45.6143 11.2822C45.4971 11.5264 45.3281 11.7168 45.1074 11.8535C44.8887 11.9902 44.6367 12.0586 44.3516 12.0586C43.9219 12.0586 43.5732 11.9092 43.3057 11.6104C43.04 11.3115 42.9072 10.916 42.9072 10.4238V10.3857ZM43.4521 10.4502C43.4521 10.8018 43.5332 11.084 43.6953 11.2969C43.8594 11.5098 44.0781 11.6162 44.3516 11.6162C44.627 11.6162 44.8457 11.5088 45.0078 11.2939C45.1699 11.0771 45.251 10.7744 45.251 10.3857C45.251 10.0381 45.168 9.75684 45.002 9.54199C44.8379 9.3252 44.6191 9.2168 44.3457 9.2168C44.0781 9.2168 43.8623 9.32324 43.6982 9.53613C43.5342 9.74902 43.4521 10.0537 43.4521 10.4502ZM48.4297 12C48.3984 11.9375 48.373 11.8262 48.3535 11.666C48.1016 11.9277 47.8008 12.0586 47.4512 12.0586C47.1387 12.0586 46.8818 11.9707 46.6807 11.7949C46.4814 11.6172 46.3818 11.3926 46.3818 11.1211C46.3818 10.791 46.5068 10.5352 46.7568 10.3535C47.0088 10.1699 47.3623 10.0781 47.8174 10.0781H48.3447V9.8291C48.3447 9.63965 48.2881 9.48926 48.1748 9.37793C48.0615 9.26465 47.8945 9.20801 47.6738 9.20801C47.4805 9.20801 47.3184 9.25684 47.1875 9.35449C47.0566 9.45215 46.9912 9.57031 46.9912 9.70898H46.4463C46.4463 9.55078 46.502 9.39844 46.6133 9.25195C46.7266 9.10352 46.8789 8.98633 47.0703 8.90039C47.2637 8.81445 47.4756 8.77148 47.7061 8.77148C48.0713 8.77148 48.3574 8.86328 48.5645 9.04688C48.7715 9.22852 48.8789 9.47949 48.8867 9.7998V11.2588C48.8867 11.5498 48.9238 11.7812 48.998 11.9531V12H48.4297ZM47.5303 11.5869C47.7002 11.5869 47.8613 11.543 48.0137 11.4551C48.166 11.3672 48.2764 11.2529 48.3447 11.1123V10.4619H47.9199C47.2559 10.4619 46.9238 10.6562 46.9238 11.0449C46.9238 11.2148 46.9805 11.3477 47.0938 11.4434C47.207 11.5391 47.3525 11.5869 47.5303 11.5869ZM49.6045 10.3887C49.6045 9.90234 49.7197 9.51172 49.9502 9.2168C50.1807 8.91992 50.4824 8.77148 50.8555 8.77148C51.2266 8.77148 51.5205 8.89844 51.7373 9.15234V7.5H52.2793V12H51.7812L51.7549 11.6602C51.5381 11.9258 51.2363 12.0586 50.8496 12.0586C50.4824 12.0586 50.1826 11.9082 49.9502 11.6074C49.7197 11.3066 49.6045 10.9141 49.6045 10.4297V10.3887ZM50.1465 10.4502C50.1465 10.8096 50.2207 11.0908 50.3691 11.2939C50.5176 11.4971 50.7227 11.5986 50.9844 11.5986C51.3281 11.5986 51.5791 11.4443 51.7373 11.1357V9.67969C51.5752 9.38086 51.3262 9.23145 50.9902 9.23145C50.7246 9.23145 50.5176 9.33398 50.3691 9.53906C50.2207 9.74414 50.1465 10.0479 50.1465 10.4502ZM57.0488 10.1162H55.2588V12H54.6963V7.73438H57.3389V8.19727H55.2588V9.65625H57.0488V10.1162ZM59.3838 9.31641C59.3018 9.30273 59.2129 9.2959 59.1172 9.2959C58.7617 9.2959 58.5205 9.44727 58.3936 9.75V12H57.8516V8.83008H58.3789L58.3877 9.19629C58.5654 8.91309 58.8174 8.77148 59.1436 8.77148C59.249 8.77148 59.3291 8.78516 59.3838 8.8125V9.31641ZM59.6826 10.3857C59.6826 10.0752 59.7432 9.7959 59.8643 9.54785C59.9873 9.2998 60.1572 9.1084 60.374 8.97363C60.5928 8.83887 60.8418 8.77148 61.1211 8.77148C61.5527 8.77148 61.9014 8.9209 62.167 9.21973C62.4346 9.51855 62.5684 9.91602 62.5684 10.4121V10.4502C62.5684 10.7588 62.5088 11.0361 62.3896 11.2822C62.2725 11.5264 62.1035 11.7168 61.8828 11.8535C61.6641 11.9902 61.4121 12.0586 61.127 12.0586C60.6973 12.0586 60.3486 11.9092 60.0811 11.6104C59.8154 11.3115 59.6826 10.916 59.6826 10.4238V10.3857ZM60.2275 10.4502C60.2275 10.8018 60.3086 11.084 60.4707 11.2969C60.6348 11.5098 60.8535 11.6162 61.127 11.6162C61.4023 11.6162 61.6211 11.5088 61.7832 11.2939C61.9453 11.0771 62.0264 10.7744 62.0264 10.3857C62.0264 10.0381 61.9434 9.75684 61.7773 9.54199C61.6133 9.3252 61.3945 9.2168 61.1211 9.2168C60.8535 9.2168 60.6377 9.32324 60.4736 9.53613C60.3096 9.74902 60.2275 10.0537 60.2275 10.4502ZM63.7578 8.83008L63.7725 9.18164C64.0049 8.9082 64.3184 8.77148 64.7129 8.77148C65.1562 8.77148 65.458 8.94141 65.6182 9.28125C65.7236 9.12891 65.8604 9.00586 66.0283 8.91211C66.1982 8.81836 66.3984 8.77148 66.6289 8.77148C67.3242 8.77148 67.6777 9.13965 67.6895 9.87598V12H67.1475V9.9082C67.1475 9.68164 67.0957 9.5127 66.9922 9.40137C66.8887 9.28809 66.7148 9.23145 66.4707 9.23145C66.2695 9.23145 66.1025 9.29199 65.9697 9.41309C65.8369 9.53223 65.7598 9.69336 65.7383 9.89648V12H65.1934V9.92285C65.1934 9.46191 64.9678 9.23145 64.5166 9.23145C64.1611 9.23145 63.918 9.38281 63.7871 9.68555V12H63.2451V8.83008H63.7578ZM31.6689 19.418L32.6533 14.6016H33.7563L32.2798 21H31.2163L29.999 16.3286L28.7554 21H27.6875L26.2109 14.6016H27.314L28.3071 19.4092L29.5288 14.6016H30.4604L31.6689 19.418ZM35.6021 21H34.5342V16.2451H35.6021V21ZM34.4683 15.0103C34.4683 14.8462 34.5195 14.71 34.6221 14.6016C34.7275 14.4932 34.877 14.439 35.0703 14.439C35.2637 14.439 35.4131 14.4932 35.5186 14.6016C35.624 14.71 35.6768 14.8462 35.6768 15.0103C35.6768 15.1714 35.624 15.3062 35.5186 15.4146C35.4131 15.52 35.2637 15.5728 35.0703 15.5728C34.877 15.5728 34.7275 15.52 34.6221 15.4146C34.5195 15.3062 34.4683 15.1714 34.4683 15.0103ZM37.7598 16.2451L37.7905 16.7944C38.1421 16.3696 38.6035 16.1572 39.1748 16.1572C40.165 16.1572 40.6689 16.7241 40.6865 17.8579V21H39.6187V17.9194C39.6187 17.6177 39.5527 17.395 39.4209 17.2515C39.292 17.105 39.0796 17.0317 38.7837 17.0317C38.353 17.0317 38.0322 17.2266 37.8213 17.6162V21H36.7534V16.2451H37.7598ZM41.5786 18.5874C41.5786 17.855 41.7485 17.2676 42.0884 16.8252C42.4282 16.3799 42.8838 16.1572 43.4551 16.1572C43.959 16.1572 44.3662 16.333 44.6768 16.6846V14.25H45.7446V21H44.7778L44.7251 20.5078C44.4058 20.8945 43.9795 21.0879 43.4463 21.0879C42.8896 21.0879 42.4385 20.8638 42.0928 20.4155C41.75 19.9673 41.5786 19.3579 41.5786 18.5874ZM42.6465 18.6797C42.6465 19.1631 42.7388 19.541 42.9233 19.8135C43.1108 20.083 43.376 20.2178 43.7188 20.2178C44.1553 20.2178 44.4746 20.0229 44.6768 19.6333V17.603C44.4805 17.2222 44.1641 17.0317 43.7275 17.0317C43.3818 17.0317 43.1152 17.1694 42.9277 17.4448C42.7402 17.7173 42.6465 18.1289 42.6465 18.6797ZM46.6587 18.5786C46.6587 18.1128 46.751 17.6938 46.9355 17.3218C47.1201 16.9468 47.3794 16.6597 47.7134 16.4604C48.0474 16.2583 48.4312 16.1572 48.8647 16.1572C49.5063 16.1572 50.0264 16.3638 50.4248 16.7769C50.8262 17.1899 51.043 17.7378 51.0752 18.4204L51.0796 18.6709C51.0796 19.1396 50.9888 19.5586 50.8071 19.9277C50.6284 20.2969 50.3706 20.5825 50.0337 20.7847C49.6997 20.9868 49.313 21.0879 48.8735 21.0879C48.2026 21.0879 47.665 20.8652 47.2607 20.4199C46.8594 19.9717 46.6587 19.3755 46.6587 18.6313V18.5786ZM47.7266 18.6709C47.7266 19.1602 47.8276 19.5439 48.0298 19.8223C48.2319 20.0977 48.5132 20.2354 48.8735 20.2354C49.2339 20.2354 49.5137 20.0947 49.7129 19.8135C49.915 19.5322 50.0161 19.1206 50.0161 18.5786C50.0161 18.0981 49.9121 17.7173 49.7041 17.436C49.499 17.1548 49.2192 17.0142 48.8647 17.0142C48.5161 17.0142 48.2393 17.1533 48.0342 17.4316C47.8291 17.707 47.7266 18.1201 47.7266 18.6709ZM56.1597 19.5278L56.9155 16.2451H57.957L56.6606 21H55.7817L54.7622 17.7349L53.7603 21H52.8813L51.5806 16.2451H52.6221L53.3911 19.4927L54.3667 16.2451H55.1709L56.1597 19.5278ZM61.3364 19.708C61.3364 19.5176 61.2573 19.3726 61.0991 19.2729C60.9438 19.1733 60.6846 19.0854 60.3213 19.0093C59.958 18.9331 59.6548 18.8364 59.4116 18.7192C58.8784 18.4614 58.6118 18.0879 58.6118 17.5986C58.6118 17.1885 58.7847 16.8457 59.1304 16.5703C59.4761 16.2949 59.9155 16.1572 60.4487 16.1572C61.0171 16.1572 61.4756 16.2979 61.8242 16.5791C62.1758 16.8604 62.3516 17.2251 62.3516 17.6733H61.2837C61.2837 17.4683 61.2075 17.2983 61.0552 17.1636C60.9028 17.0259 60.7007 16.957 60.4487 16.957C60.2144 16.957 60.0225 17.0112 59.873 17.1196C59.7266 17.228 59.6533 17.373 59.6533 17.5547C59.6533 17.7188 59.7222 17.8462 59.8599 17.937C59.9976 18.0278 60.2759 18.1201 60.6948 18.2139C61.1138 18.3047 61.4419 18.4146 61.6792 18.5435C61.9194 18.6694 62.0967 18.8218 62.2109 19.0005C62.3281 19.1792 62.3867 19.396 62.3867 19.6509C62.3867 20.0786 62.2095 20.4258 61.855 20.6924C61.5005 20.9561 61.0361 21.0879 60.4619 21.0879C60.0723 21.0879 59.7251 21.0176 59.4204 20.877C59.1157 20.7363 58.8784 20.543 58.7085 20.2969C58.5386 20.0508 58.4536 19.7856 58.4536 19.5015H59.4907C59.5054 19.7534 59.6006 19.9482 59.7764 20.0859C59.9521 20.2207 60.1851 20.2881 60.4751 20.2881C60.7563 20.2881 60.9702 20.2354 61.1167 20.1299C61.2632 20.0215 61.3364 19.8809 61.3364 19.708ZM69.0093 19.3521C69.0093 19.0708 68.9097 18.854 68.7104 18.7017C68.5142 18.5493 68.1582 18.3955 67.6426 18.2402C67.127 18.085 66.7168 17.9121 66.4121 17.7217C65.8291 17.3555 65.5376 16.8779 65.5376 16.2891C65.5376 15.7734 65.7471 15.3486 66.166 15.0146C66.5879 14.6807 67.1343 14.5137 67.8052 14.5137C68.2505 14.5137 68.6475 14.5957 68.9961 14.7598C69.3447 14.9238 69.6187 15.1582 69.8179 15.4629C70.0171 15.7646 70.1167 16.1001 70.1167 16.4692H69.0093C69.0093 16.1353 68.9038 15.8745 68.6929 15.687C68.4849 15.4966 68.186 15.4014 67.7964 15.4014C67.4331 15.4014 67.1504 15.479 66.9482 15.6343C66.749 15.7896 66.6494 16.0063 66.6494 16.2847C66.6494 16.519 66.7578 16.7153 66.9746 16.8735C67.1914 17.0288 67.5488 17.1812 68.0469 17.3306C68.5449 17.4771 68.9448 17.6455 69.2466 17.8359C69.5483 18.0234 69.7695 18.2402 69.9102 18.4863C70.0508 18.7295 70.1211 19.0151 70.1211 19.3433C70.1211 19.8765 69.916 20.3013 69.5059 20.6177C69.0986 20.9312 68.5449 21.0879 67.8447 21.0879C67.3818 21.0879 66.9556 21.0029 66.5659 20.833C66.1792 20.6602 65.8774 20.4229 65.6606 20.1211C65.4468 19.8193 65.3398 19.4678 65.3398 19.0664H66.4517C66.4517 19.4297 66.5718 19.7109 66.812 19.9102C67.0522 20.1094 67.3965 20.209 67.8447 20.209C68.2314 20.209 68.5215 20.1313 68.7148 19.9761C68.9111 19.8179 69.0093 19.6099 69.0093 19.3521ZM72.3315 15.0894V16.2451H73.1709V17.0361H72.3315V19.6904C72.3315 19.8721 72.3667 20.0039 72.437 20.0859C72.5103 20.165 72.6392 20.2046 72.8237 20.2046C72.9468 20.2046 73.0713 20.1899 73.1973 20.1606V20.9868C72.9541 21.0542 72.7197 21.0879 72.4941 21.0879C71.6738 21.0879 71.2637 20.6353 71.2637 19.73V17.0361H70.4814V16.2451H71.2637V15.0894H72.3315ZM73.6587 18.5786C73.6587 18.1128 73.751 17.6938 73.9355 17.3218C74.1201 16.9468 74.3794 16.6597 74.7134 16.4604C75.0474 16.2583 75.4312 16.1572 75.8647 16.1572C76.5063 16.1572 77.0264 16.3638 77.4248 16.7769C77.8262 17.1899 78.043 17.7378 78.0752 18.4204L78.0796 18.6709C78.0796 19.1396 77.9888 19.5586 77.8071 19.9277C77.6284 20.2969 77.3706 20.5825 77.0337 20.7847C76.6997 20.9868 76.313 21.0879 75.8735 21.0879C75.2026 21.0879 74.665 20.8652 74.2607 20.4199C73.8594 19.9717 73.6587 19.3755 73.6587 18.6313V18.5786ZM74.7266 18.6709C74.7266 19.1602 74.8276 19.5439 75.0298 19.8223C75.2319 20.0977 75.5132 20.2354 75.8735 20.2354C76.2339 20.2354 76.5137 20.0947 76.7129 19.8135C76.915 19.5322 77.0161 19.1206 77.0161 18.5786C77.0161 18.0981 76.9121 17.7173 76.7041 17.436C76.499 17.1548 76.2192 17.0142 75.8647 17.0142C75.5161 17.0142 75.2393 17.1533 75.0342 17.4316C74.8291 17.707 74.7266 18.1201 74.7266 18.6709ZM81.4722 17.2207C81.3315 17.1973 81.1865 17.1855 81.0371 17.1855C80.5479 17.1855 80.2183 17.373 80.0483 17.748V21H78.9805V16.2451H80L80.0264 16.7769C80.2842 16.3638 80.6416 16.1572 81.0986 16.1572C81.251 16.1572 81.377 16.1777 81.4766 16.2188L81.4722 17.2207ZM84.1528 21.0879C83.4761 21.0879 82.9268 20.8755 82.5049 20.4507C82.0859 20.0229 81.8765 19.4546 81.8765 18.7456V18.6138C81.8765 18.1392 81.9673 17.7158 82.1489 17.3438C82.3335 16.9688 82.5913 16.6772 82.9224 16.4692C83.2534 16.2612 83.6226 16.1572 84.0298 16.1572C84.6772 16.1572 85.1768 16.3638 85.5283 16.7769C85.8828 17.1899 86.0601 17.7744 86.0601 18.5303V18.9609H82.9531C82.9854 19.3535 83.1157 19.6641 83.3442 19.8926C83.5757 20.1211 83.8657 20.2354 84.2144 20.2354C84.7036 20.2354 85.1021 20.0376 85.4097 19.6421L85.9854 20.1914C85.7949 20.4756 85.54 20.6968 85.2207 20.855C84.9043 21.0103 84.5483 21.0879 84.1528 21.0879ZM84.0254 17.0142C83.7324 17.0142 83.4951 17.1167 83.3135 17.3218C83.1348 17.5269 83.0205 17.8125 82.9707 18.1787H85.0054V18.0996C84.9819 17.7422 84.8867 17.4727 84.7197 17.291C84.5527 17.1064 84.3213 17.0142 84.0254 17.0142Z" fill="white"/>
<path d="M15.3641 7.44043C14.6933 7.67614 14.2037 7.87558 14.2037 9.14477V9.76124L14.6026 9.68871V9.16291C14.5845 8.2926 14.8202 8.11129 15.4004 7.85745C15.4004 7.69427 15.4004 7.54922 15.3641 7.44043Z" fill="white"/>
<path d="M16.5244 7.16805C16.5425 7.29497 16.5788 7.42189 16.5788 7.56694C17.6304 7.42189 17.6123 7.85704 17.6123 8.74548V9.07184L18.0112 8.99931V8.74548C18.0112 7.34936 17.7936 6.96861 16.5244 7.16805Z" fill="white"/>
<path d="M12.4087 10.1239V8.27449C12.3905 7.13222 12.9889 6.78772 14.0767 6.53388C15.7086 6.15313 15.8173 7.20474 15.8173 7.8756V9.4349L16.2162 9.36237V7.91186C16.2162 6.64267 15.8173 5.68171 13.9861 6.09873C13.007 6.31631 12.0098 6.57014 12.0098 8.23823V10.1964L12.4087 10.1239V10.1239Z" fill="white"/>
<path d="M20.0238 9.09033L9 11.3024V19.3164L20.0238 21.5284L22.2177 20.7306V9.90624L20.0238 9.09033V9.09033ZM13.8229 17.6483L11.3752 17.3038V15.2731H13.8229V17.6483ZM13.8229 14.9649H11.3752V13.0974L13.8229 12.7529V14.9649V14.9649ZM17.2135 18.1197L14.1312 17.6664V15.2731H17.2135V18.1197ZM17.2135 14.9649H14.1312V12.7347L17.2135 12.2814V14.9649Z" fill="white"/>
</svg>
