<svg width="16" height="16" viewBox="0 0 16 16" fill="none" xmlns="http://www.w3.org/2000/svg">
<g clip-path="url(#clip0)">
<path d="M15.2672 8.80122C15.3009 8.52264 15.3177 8.24233 15.3177 7.96173C15.2921 3.9224 12.0014 0.666211 7.96196 0.683142C7.68164 0.686042 7.40176 0.705811 7.12381 0.742355C4.94291 -0.620355 2.07022 0.0428996 0.707505 2.2238C-0.245049 3.74828 -0.23504 5.68491 0.733261 7.19944C0.699866 7.4778 0.683184 7.7579 0.683371 8.03825C0.708659 12.0776 3.99908 15.3341 8.03848 15.3175C8.31902 15.3146 8.59912 15.2948 8.87729 15.2583C11.0586 16.6204 13.9311 15.9564 15.2932 13.775C16.2449 12.251 16.2348 10.3153 15.2672 8.80122ZM8.02782 13.3246C5.44552 13.3379 4.02864 11.8073 4.02465 11.017V10.6844C4.02057 10.1333 4.46396 9.68333 5.015 9.67922C5.53747 9.67535 5.97447 10.0752 6.01691 10.5959C6.27699 11.1074 7.19965 11.3329 8.01915 11.3276C8.10097 11.3276 10.0147 11.3017 10.0074 9.9866C10.0074 9.35135 9.15863 9.09591 7.76636 8.74999C6.0914 8.33291 4.00931 7.81539 3.99734 5.69274C3.98271 3.00932 6.07142 2.68871 7.63996 2.68005C9.86305 2.66873 11.3032 3.57541 11.3105 4.98895C11.315 5.54001 10.872 5.99039 10.3209 5.99491C9.81734 5.99906 9.38959 5.62726 9.32355 5.12798C8.82478 4.77458 8.21484 4.61387 7.60668 4.67564C7.21043 4.64963 6.81284 4.69837 6.43462 4.81932C6.22707 4.91177 5.9896 5.09337 5.99225 5.68407C5.99225 6.17764 6.99603 6.45103 8.05435 6.74039C9.80714 7.21868 11.9883 7.81468 11.9996 9.97659C12.0123 11.9955 10.4531 13.3092 8.02841 13.3219L8.02782 13.3246Z" fill="#2196F3"/>
</g>
<defs>
<clipPath id="clip0">
<rect width="16" height="16" fill="white"/>
</clipPath>
</defs>
</svg>
