<svg width="32" height="32" viewBox="0 0 32 32" fill="none" xmlns="http://www.w3.org/2000/svg">
<rect width="32" height="32" rx="16" fill="#8E24AA"/>
<g clip-path="url(#clip0)">
<path d="M23.1967 17.2208C23.6586 13.3324 22.9748 10.8775 21.7412 9.76722L21.7419 9.76658C19.7509 7.87045 13.027 7.5898 10.6451 9.85174C9.57542 10.9582 9.19864 12.5821 9.15735 14.5924C9.11606 16.6034 9.06703 20.3705 12.5774 21.3924H12.5806L12.5774 22.953C12.5774 22.953 12.5535 23.5853 12.9574 23.7124C13.4193 23.8621 13.6283 23.5685 15.0651 21.8524C17.4677 22.0608 19.3128 21.5834 19.5225 21.5137C20.0077 21.3511 22.7528 20.9879 23.1967 17.2208ZM15.3019 20.7543C15.3019 20.7543 13.7812 22.6505 13.3083 23.1427C13.1535 23.3027 12.9838 23.2879 12.9864 22.9705C12.9864 22.7621 12.998 20.3795 12.998 20.3795C10.0219 19.5266 10.1974 16.3188 10.2296 14.6408C10.2619 12.9621 10.569 11.5872 11.4748 10.6614C13.5644 8.70206 19.4593 9.14013 20.9612 10.5517C22.7974 12.1795 22.1438 16.7782 22.1477 16.935C21.7703 20.0795 19.5457 20.2788 19.1367 20.415C18.9619 20.473 17.3393 20.8905 15.3019 20.7543Z" fill="white"/>
<path d="M16.1433 11.0303C15.8949 11.0303 15.8949 11.4174 16.1433 11.4206C18.0704 11.4354 19.6575 12.7787 19.6749 15.2425C19.6749 15.5025 20.0556 15.4993 20.0524 15.2393H20.0517C20.0311 12.5845 18.2982 11.0451 16.1433 11.0303Z" fill="white"/>
<path d="M18.6781 14.8333C18.6722 15.09 19.0522 15.1023 19.0555 14.8423C19.0871 13.3784 18.1845 12.1726 16.4884 12.0455C16.24 12.0275 16.2142 12.4178 16.4619 12.4359C17.9329 12.5475 18.7077 13.5513 18.6781 14.8333Z" fill="white"/>
<path d="M18.2715 16.4984C17.9528 16.3139 17.6283 16.4287 17.4941 16.61L17.2134 16.9733C17.0709 17.1578 16.8044 17.1333 16.8044 17.1333C14.8599 16.6191 14.3399 14.5842 14.3399 14.5842C14.3399 14.5842 14.316 14.3087 14.4941 14.161L14.8451 13.8707C15.0205 13.7313 15.1315 13.3958 14.9528 13.0662C14.4754 12.2036 14.1547 11.9062 13.9915 11.6778C13.8199 11.4629 13.5618 11.4145 13.2934 11.5597H13.2876C12.7296 11.8862 12.1186 12.4971 12.3141 13.1262C12.6476 13.7894 13.2605 15.9036 15.2141 17.501C16.1322 18.2565 17.5851 19.0307 18.2018 19.2094L18.2076 19.2184C18.8154 19.421 19.4063 18.7862 19.7218 18.2113V18.2068C19.8618 17.9287 19.8154 17.6655 19.6109 17.4933C19.2483 17.1397 18.7012 16.7494 18.2715 16.4984Z" fill="white"/>
<path d="M16.754 13.4855C17.374 13.5216 17.6746 13.8455 17.7069 14.5106C17.7185 14.7706 18.0959 14.7526 18.0843 14.4926C18.043 13.6242 17.5901 13.1403 16.7746 13.0951C16.5262 13.0803 16.503 13.4706 16.754 13.4855Z" fill="white"/>
</g>
<defs>
<clipPath id="clip0">
<rect width="15.4839" height="15.4839" fill="white" transform="translate(8.25806 8.25781)"/>
</clipPath>
</defs>
</svg>
