<svg width="16" height="16" viewBox="0 0 16 16" fill="none" xmlns="http://www.w3.org/2000/svg">
<g clip-path="url(#clip0)">
<path d="M15.4367 9.26201C15.914 5.24401 15.2073 2.70734 13.9327 1.56L13.9333 1.55934C11.876 -0.399999 4.92799 -0.69 2.46666 1.64734C1.36133 2.79067 0.971992 4.46867 0.929325 6.54601C0.886659 8.62401 0.835992 12.5167 4.46333 13.5727H4.46666L4.46333 15.1853C4.46333 15.1853 4.43866 15.8387 4.85599 15.97C5.33333 16.1247 5.54932 15.8213 7.03399 14.048C9.51666 14.2633 11.4233 13.77 11.64 13.698C12.1413 13.53 14.978 13.1547 15.4367 9.26201ZM7.27866 12.9133C7.27866 12.9133 5.70733 14.8727 5.21866 15.3813C5.05866 15.5467 4.88333 15.5313 4.88599 15.2033C4.88599 14.988 4.89799 12.526 4.89799 12.526C1.82266 11.6447 2.00399 8.33001 2.03733 6.59601C2.07066 4.86134 2.38799 3.44067 3.32399 2.484C5.48333 0.459335 11.5747 0.912002 13.1267 2.37067C15.024 4.05267 14.3487 8.80468 14.3527 8.96668C13.9627 12.216 11.664 12.422 11.2413 12.5627C11.0607 12.6227 9.38399 13.054 7.27866 12.9133Z" fill="#8E24AA"/>
<path d="M8.14807 2.86467C7.8914 2.86467 7.8914 3.26467 8.14807 3.268C10.1394 3.28334 11.7794 4.67134 11.7974 7.21734C11.7974 7.486 12.1907 7.48267 12.1874 7.214H12.1867C12.1654 4.47067 10.3747 2.88 8.14807 2.86467Z" fill="#8E24AA"/>
<path d="M10.7673 6.79534C10.7613 7.06067 11.154 7.07334 11.1573 6.80467C11.19 5.292 10.2573 4.046 8.50467 3.91467C8.248 3.896 8.22133 4.29934 8.47733 4.318C9.99734 4.43334 10.798 5.47067 10.7673 6.79534Z" fill="#8E24AA"/>
<path d="M10.3473 8.51599C10.018 8.32533 9.68264 8.44399 9.54397 8.63133L9.25397 9.00666C9.10664 9.19733 8.8313 9.17199 8.8313 9.17199C6.82197 8.64066 6.28464 6.538 6.28464 6.538C6.28464 6.538 6.25998 6.25333 6.44398 6.10066L6.80664 5.80066C6.98797 5.65666 7.10264 5.31 6.91797 4.96933C6.42464 4.078 6.09331 3.77066 5.92464 3.53466C5.74731 3.31266 5.48064 3.26266 5.20331 3.41266H5.19731C4.62065 3.75 3.98931 4.38133 4.19131 5.03133C4.53598 5.71666 5.16931 7.90133 7.18797 9.55199C8.13664 10.3327 9.63797 11.1327 10.2753 11.3173L10.2813 11.3267C10.9093 11.536 11.52 10.88 11.846 10.286V10.2813C11.9906 9.99399 11.9426 9.72199 11.7313 9.54399C11.3566 9.17866 10.7913 8.77533 10.3473 8.51599Z" fill="#8E24AA"/>
<path d="M8.7794 5.40267C9.42007 5.44 9.73074 5.77467 9.76408 6.46201C9.77608 6.73068 10.1661 6.71201 10.1541 6.44334C10.1114 5.546 9.64341 5.046 8.80073 4.99934C8.54406 4.984 8.52006 5.38734 8.7794 5.40267Z" fill="#8E24AA"/>
</g>
<defs>
<clipPath id="clip0">
<rect width="16" height="16" fill="white"/>
</clipPath>
</defs>
</svg>
