<svg width="32" height="32" viewBox="0 0 32 32" fill="none" xmlns="http://www.w3.org/2000/svg">
<rect width="32" height="32" rx="16" fill="#7AD06D"/>
<g clip-path="url(#clip0)">
<path d="M15.6245 8.26677C11.5352 8.46147 8.30819 11.867 8.32059 15.9609C8.32437 17.2078 8.62539 18.3847 9.15641 19.4246L8.34111 23.3822C8.297 23.5963 8.49008 23.7838 8.70275 23.7334L12.5807 22.8146C13.577 23.3109 14.6961 23.5976 15.8805 23.6156C20.0601 23.6795 23.5452 20.3607 23.6754 16.1827C23.8151 11.7041 20.1187 8.05273 15.6245 8.26677ZM20.2517 20.189C19.116 21.3247 17.606 21.9501 15.9999 21.9501C15.0595 21.9501 14.1591 21.7391 13.3237 21.323L12.7837 21.054L10.4061 21.6173L10.9066 19.1878L10.6405 18.6668C10.2068 17.8175 9.98694 16.8991 9.98694 15.9372C9.98694 14.331 10.6124 12.8211 11.7481 11.6853C12.8736 10.5598 14.4083 9.92415 16 9.92415C17.6061 9.92419 19.1161 10.5496 20.2518 11.6853C21.3875 12.821 22.0129 14.331 22.0129 15.9371C22.0129 17.5289 21.3773 19.0635 20.2517 20.189Z" fill="white"/>
<path d="M19.7268 17.6024L18.2393 17.1753C18.0438 17.1191 17.8332 17.1746 17.6907 17.3198L17.3269 17.6904C17.1735 17.8467 16.9408 17.8969 16.7378 17.8148C16.0341 17.53 14.5539 16.2139 14.1759 15.5556C14.0669 15.3657 14.0849 15.1283 14.2188 14.955L14.5364 14.5442C14.6608 14.3832 14.6871 14.167 14.6048 13.9809L13.979 12.5655C13.8291 12.2265 13.3958 12.1278 13.1128 12.3672C12.6977 12.7183 12.2051 13.2519 12.1452 13.843C12.0396 14.8852 12.4866 16.199 14.1768 17.7765C16.1294 19.599 17.6931 19.8397 18.7112 19.5931C19.2886 19.4533 19.7501 18.8925 20.0413 18.4334C20.2399 18.1204 20.0831 17.7047 19.7268 17.6024Z" fill="white"/>
</g>
<defs>
<clipPath id="clip0">
<rect width="15.4839" height="15.4839" fill="white" transform="translate(8.25806 8.25781)"/>
</clipPath>
</defs>
</svg>
