<svg width="177" height="72" viewBox="0 0 177 72" fill="none" xmlns="http://www.w3.org/2000/svg">
<path d="M7.24074 13.537V34.9444L21.7222 18.2593V13.537H7.24074Z" fill="#00A6FF"/>
<path d="M44.0741 0L0 51H13.537L48.7963 10.3889L55.4074 17.9444L57.9259 15.4259L44.0741 0Z" fill="#00A6FF"/>
<path d="M47.8519 51H34L78.0741 0L97.5926 22.3519H93.5L82.7963 10.3889L47.8519 51Z" fill="#00A6FF"/>
<path d="M86.4062 52.9238C83.0612 52.9238 80.2721 52.0306 78.0391 50.2441C75.7969 48.4486 74.6758 46.056 74.6758 43.0664C74.6758 40.7422 75.3548 38.7598 76.7129 37.1191C78.071 35.4785 79.9076 34.2617 82.2227 33.4688C83.6172 33.013 84.9251 32.7852 86.1465 32.7852C88.5072 32.7852 90.5898 33.168 92.3945 33.9336V38.3086H92.2852C90.7448 35.3737 88.6667 33.9062 86.0508 33.9062C84.0547 33.9062 82.4049 34.681 81.1016 36.2305C79.8073 37.7708 79.1602 39.9583 79.1602 42.793C79.1602 45.6094 79.8392 47.8197 81.1973 49.4238C82.5645 51.0098 84.3372 51.8027 86.5156 51.8027C88.0195 51.8027 89.2773 51.3926 90.2891 50.5723C91.3008 49.7428 92.1712 48.5853 92.9004 47.0996H93.0508L92.6543 51.7207C91.9069 52.1217 90.9544 52.418 89.7969 52.6094C88.6393 52.8008 87.5091 52.9056 86.4062 52.9238ZM96.8105 50.7637H96.5371C96.9928 51.0645 97.4941 51.2923 98.041 51.4473C98.5879 51.6022 99.0618 51.6979 99.4629 51.7344C99.873 51.7708 100.429 51.7936 101.131 51.8027C103.3 51.8027 105.068 50.9688 106.436 49.3008C107.648 47.8333 108.322 45.8874 108.459 43.4629C107.867 43.2168 107.206 43.0938 106.477 43.0938C105.729 43.0938 104.74 43.3034 103.51 43.7227C102.279 44.1419 101.231 44.3516 100.365 44.3516C99.1712 44.3516 97.7539 43.3809 96.1133 41.4395L96.3047 41.2207C97.0339 41.8496 97.9089 42.1641 98.9297 42.1641C99.4948 42.1641 100.424 41.9544 101.719 41.5352C103.013 41.1159 104.011 40.9062 104.713 40.9062C105.342 40.9062 105.989 41.0885 106.654 41.4531C107.329 41.8086 107.939 42.2461 108.486 42.7656V42.4785C108.486 39.6986 107.844 37.5749 106.559 36.1074C105.273 34.64 103.619 33.9062 101.596 33.9062C98.9798 33.9062 96.9017 35.3737 95.3613 38.3086H95.2383V33.9336C96.0221 33.5872 97.0658 33.3092 98.3691 33.0996C99.6725 32.89 100.826 32.7852 101.828 32.7852C104.143 32.7852 106.281 33.3047 108.24 34.3438C109.79 35.1732 110.965 36.2943 111.768 37.707C112.57 39.1198 112.971 40.7194 112.971 42.5059C112.971 45.5501 111.831 48.0475 109.553 49.998C107.274 51.9486 104.503 52.9238 101.24 52.9238C96.7559 52.9238 94.5137 51.4655 94.5137 48.5488C94.5137 47.9199 94.7324 47.3822 95.1699 46.9355C95.6165 46.4798 96.1543 46.252 96.7832 46.252C97.4121 46.252 97.9453 46.4798 98.3828 46.9355C98.8294 47.3822 99.0527 47.9199 99.0527 48.5488C99.0527 49.1777 98.834 49.7064 98.3965 50.1348C97.9681 50.554 97.4395 50.7637 96.8105 50.7637ZM127.039 52.9238C123.694 52.9238 120.905 52.0306 118.672 50.2441C116.43 48.4486 115.309 46.056 115.309 43.0664C115.309 40.7422 115.988 38.7598 117.346 37.1191C118.704 35.4785 120.54 34.2617 122.855 33.4688C124.25 33.013 125.558 32.7852 126.779 32.7852C129.14 32.7852 131.223 33.168 133.027 33.9336V38.3086H132.918C131.378 35.3737 129.299 33.9062 126.684 33.9062C124.688 33.9062 123.038 34.681 121.734 36.2305C120.44 37.7708 119.793 39.9583 119.793 42.793C119.793 45.6094 120.472 47.8197 121.83 49.4238C123.197 51.0098 124.97 51.8027 127.148 51.8027C128.652 51.8027 129.91 51.3926 130.922 50.5723C131.934 49.7428 132.804 48.5853 133.533 47.0996H133.684L133.287 51.7207C132.54 52.1217 131.587 52.418 130.43 52.6094C129.272 52.8008 128.142 52.9056 127.039 52.9238ZM155.955 52.3906V52.5H153.07C151.247 52.5 150.081 52.3542 149.57 52.0625C149.069 51.7799 148.563 50.9004 148.053 49.4238L147.191 46.9219C146.572 45.1536 146.007 44.0417 145.496 43.5859C144.986 43.1302 144.12 42.9023 142.898 42.9023H141.613V48.6855C141.613 49.7611 141.745 50.5632 142.01 51.0918C142.283 51.6204 142.88 52.0534 143.801 52.3906V52.5H135.229V52.3906C135.712 52.2174 136.099 52.0215 136.391 51.8027C136.691 51.584 136.915 51.3151 137.061 50.9961C137.206 50.6771 137.302 50.349 137.348 50.0117C137.393 49.6745 137.416 49.2324 137.416 48.6855V36.9824C137.416 36.4447 137.393 36.0072 137.348 35.6699C137.302 35.3327 137.206 35.0046 137.061 34.6855C136.915 34.3665 136.691 34.0977 136.391 33.8789C136.099 33.6602 135.712 33.4642 135.229 33.291V33.1816H143.801V33.291C143.318 33.4642 142.926 33.6602 142.625 33.8789C142.333 34.0977 142.115 34.3665 141.969 34.6855C141.823 35.0046 141.727 35.3327 141.682 35.6699C141.636 36.0072 141.613 36.4447 141.613 36.9824V42.1094H142.406C143.254 42.1094 143.928 41.9818 144.43 41.7266C144.931 41.4622 145.368 40.9609 145.742 40.2227C146.034 39.6576 146.289 39.0241 146.508 38.3223C146.59 38.0671 146.681 37.7754 146.781 37.4473C146.882 37.1191 146.945 36.9095 146.973 36.8184C147.109 36.39 147.324 35.9115 147.615 35.3828C147.907 34.8542 148.194 34.4395 148.477 34.1387C148.768 33.8288 149.197 33.5189 149.762 33.209C150.29 32.9264 150.947 32.7852 151.73 32.7852C152.487 32.7852 153.189 32.9993 153.836 33.4277C154.483 33.847 154.807 34.4121 154.807 35.123C154.807 35.7793 154.597 36.3444 154.178 36.8184C153.768 37.2832 153.239 37.5156 152.592 37.5156C151.68 37.5156 151.033 37.1146 150.65 36.3125C150.268 35.5104 150.413 34.6901 151.088 33.8516C150.149 33.8516 149.388 34.3757 148.805 35.4238C148.34 36.2168 147.962 37.0781 147.67 38.0078C147.342 39.0378 147.118 39.7031 147 40.0039C146.827 40.4323 146.572 40.8424 146.234 41.2344C145.906 41.6172 145.542 41.918 145.141 42.1367C146.663 42.237 147.902 42.5469 148.859 43.0664C149.826 43.5951 150.623 44.584 151.252 46.0332L152.852 49.752C153.18 50.5358 153.581 51.1419 154.055 51.5703C154.529 51.9896 155.162 52.263 155.955 52.3906ZM161.861 44.3242H167.768L164.828 35.3691L161.861 44.3242ZM176.312 52.3906V52.5H167.932V52.3906C168.524 52.2539 168.925 52.0443 169.135 51.7617C169.344 51.4792 169.449 51.0234 169.449 50.3945C169.449 49.6927 169.021 48.0703 168.164 45.5273H161.465C160.754 47.724 160.398 49.2233 160.398 50.0254C160.398 50.7728 160.54 51.3105 160.822 51.6387C161.114 51.9577 161.638 52.2083 162.395 52.3906V52.5H155.613V52.3906C156.233 52.1901 156.734 51.8939 157.117 51.502C157.837 50.7363 158.831 48.5306 160.098 44.8848L164.131 33.1816H168.109L172.812 46.8125C173.505 48.7995 174.093 50.1576 174.576 50.8867C175.041 51.5977 175.62 52.099 176.312 52.3906Z" fill="white"/>
<path d="M75.605 64.584C75.605 63.4547 75.968 62.516 76.694 61.768C77.4273 61.0127 78.3587 60.635 79.488 60.635C80.654 60.635 81.5853 60.9687 82.282 61.636L81.875 62.197C81.5743 61.933 81.2113 61.7277 80.786 61.581C80.3607 61.427 79.9353 61.35 79.51 61.35C78.586 61.35 77.8343 61.658 77.255 62.274C76.683 62.8827 76.397 63.649 76.397 64.573C76.397 65.5117 76.6867 66.3037 77.266 66.949C77.8453 67.5943 78.6043 67.917 79.543 67.917C80.511 67.917 81.3433 67.576 82.04 66.894L82.48 67.433C81.666 68.2323 80.6797 68.632 79.521 68.632C78.3623 68.632 77.42 68.247 76.694 67.477C75.968 66.6997 75.605 65.7353 75.605 64.584ZM83.3025 67.015C83.3025 65.7317 84.4245 65.09 86.6685 65.09H86.9985V64.936C86.9985 63.9827 86.5438 63.506 85.6345 63.506C85.0698 63.506 84.5455 63.682 84.0615 64.034L83.7205 63.462C83.9405 63.2713 84.2302 63.121 84.5895 63.011C84.9488 62.8937 85.3118 62.835 85.6785 62.835C86.3458 62.835 86.8555 63.0183 87.2075 63.385C87.5668 63.7443 87.7465 64.2687 87.7465 64.958V68.5H87.0315V67.851L87.0645 67.389H87.0425C86.8885 67.741 86.6428 68.038 86.3055 68.28C85.9755 68.5147 85.5978 68.632 85.1725 68.632C84.6665 68.632 84.2265 68.489 83.8525 68.203C83.4858 67.917 83.3025 67.521 83.3025 67.015ZM84.0615 66.949C84.0615 67.2277 84.1715 67.4733 84.3915 67.686C84.6115 67.8987 84.9158 68.005 85.3045 68.005C85.8105 68.005 86.2175 67.7923 86.5255 67.367C86.8408 66.9417 86.9985 66.465 86.9985 65.937V65.684H86.6795C86.4448 65.684 86.2395 65.6877 86.0635 65.695C85.8948 65.7023 85.6712 65.7317 85.3925 65.783C85.1212 65.827 84.8975 65.8893 84.7215 65.97C84.5455 66.0507 84.3915 66.1753 84.2595 66.344C84.1275 66.5127 84.0615 66.7143 84.0615 66.949ZM89.4691 68.5V62.967H90.2171V65.332H93.4511V62.967H94.1991V68.5H93.4511V65.992H90.2171V68.5H89.4691ZM95.9789 68.5V62.967H96.7049V66.597C96.7049 67.103 96.6939 67.378 96.6719 67.422H96.6939C96.7232 67.3707 96.9139 67.0957 97.2659 66.597L99.9829 62.967H100.698V68.5H99.9609V64.859C99.9609 64.7637 99.9609 64.6537 99.9609 64.529C99.9682 64.4043 99.9756 64.298 99.9829 64.21C99.9902 64.1147 99.9939 64.0633 99.9939 64.056H99.9719C99.9719 64.0707 99.9389 64.122 99.8729 64.21C99.8142 64.298 99.7336 64.408 99.6309 64.54C99.5356 64.672 99.4622 64.7783 99.4109 64.859L96.6939 68.5H95.9789ZM103.853 68.5V63.627H101.84V62.967H106.625V63.627H104.601V68.5H103.853ZM107.236 67.015C107.236 65.7317 108.358 65.09 110.602 65.09H110.932V64.936C110.932 63.9827 110.477 63.506 109.568 63.506C109.003 63.506 108.479 63.682 107.995 64.034L107.654 63.462C107.874 63.2713 108.164 63.121 108.523 63.011C108.882 62.8937 109.245 62.835 109.612 62.835C110.279 62.835 110.789 63.0183 111.141 63.385C111.5 63.7443 111.68 64.2687 111.68 64.958V68.5H110.965V67.851L110.998 67.389H110.976C110.822 67.741 110.576 68.038 110.239 68.28C109.909 68.5147 109.531 68.632 109.106 68.632C108.6 68.632 108.16 68.489 107.786 68.203C107.419 67.917 107.236 67.521 107.236 67.015ZM107.995 66.949C107.995 67.2277 108.105 67.4733 108.325 67.686C108.545 67.8987 108.849 68.005 109.238 68.005C109.744 68.005 110.151 67.7923 110.459 67.367C110.774 66.9417 110.932 66.465 110.932 65.937V65.684H110.613C110.378 65.684 110.173 65.6877 109.997 65.695C109.828 65.7023 109.605 65.7317 109.326 65.783C109.055 65.827 108.831 65.8893 108.655 65.97C108.479 66.0507 108.325 66.1753 108.193 66.344C108.061 66.5127 107.995 66.7143 107.995 66.949ZM113.403 70.7V62.967H114.118V63.55L114.085 63.979H114.107C114.275 63.6197 114.528 63.341 114.866 63.143C115.21 62.9377 115.599 62.835 116.032 62.835C116.772 62.835 117.359 63.1027 117.792 63.638C118.224 64.166 118.441 64.8627 118.441 65.728C118.441 66.6007 118.21 67.3047 117.748 67.84C117.286 68.368 116.692 68.632 115.966 68.632C115.577 68.632 115.221 68.5367 114.899 68.346C114.576 68.148 114.323 67.8767 114.14 67.532H114.118C114.14 67.664 114.151 67.8253 114.151 68.016V70.7H113.403ZM114.129 65.75C114.129 66.344 114.286 66.861 114.602 67.301C114.924 67.741 115.353 67.961 115.889 67.961C116.395 67.961 116.82 67.763 117.165 67.367C117.509 66.9637 117.682 66.421 117.682 65.739C117.682 65.0717 117.517 64.5363 117.187 64.133C116.864 63.7223 116.442 63.517 115.922 63.517C115.416 63.517 114.99 63.704 114.646 64.078C114.301 64.452 114.129 65.0093 114.129 65.75ZM119.88 68.5V62.967H120.628V65.332H123.862V62.967H124.61V68.5H123.862V65.992H120.628V68.5H119.88ZM125.906 67.015C125.906 65.7317 127.028 65.09 129.272 65.09H129.602V64.936C129.602 63.9827 129.147 63.506 128.238 63.506C127.673 63.506 127.149 63.682 126.665 64.034L126.324 63.462C126.544 63.2713 126.834 63.121 127.193 63.011C127.552 62.8937 127.915 62.835 128.282 62.835C128.949 62.835 129.459 63.0183 129.811 63.385C130.17 63.7443 130.35 64.2687 130.35 64.958V68.5H129.635V67.851L129.668 67.389H129.646C129.492 67.741 129.246 68.038 128.909 68.28C128.579 68.5147 128.201 68.632 127.776 68.632C127.27 68.632 126.83 68.489 126.456 68.203C126.089 67.917 125.906 67.521 125.906 67.015ZM126.665 66.949C126.665 67.2277 126.775 67.4733 126.995 67.686C127.215 67.8987 127.519 68.005 127.908 68.005C128.414 68.005 128.821 67.7923 129.129 67.367C129.444 66.9417 129.602 66.465 129.602 65.937V65.684H129.283C129.048 65.684 128.843 65.6877 128.667 65.695C128.498 65.7023 128.275 65.7317 127.996 65.783C127.725 65.827 127.501 65.8893 127.325 65.97C127.149 66.0507 126.995 66.1753 126.863 66.344C126.731 66.5127 126.665 66.7143 126.665 66.949ZM131.512 68.5L132.843 66.597L133.096 66.267V66.245C132.744 66.1717 132.443 65.9957 132.194 65.717C131.944 65.431 131.82 65.0753 131.82 64.65C131.82 64.1073 131.996 63.693 132.348 63.407C132.707 63.1137 133.184 62.967 133.778 62.967H135.725V68.5H134.977V66.377H133.833L132.381 68.5H131.512ZM133.866 65.794H134.977V63.539H133.921C133.033 63.539 132.59 63.9093 132.59 64.65C132.59 65.0093 132.707 65.2917 132.942 65.497C133.184 65.695 133.492 65.794 133.866 65.794ZM139.895 65.739C139.895 64.8957 140.174 64.2027 140.731 63.66C141.288 63.11 141.978 62.835 142.799 62.835C143.18 62.835 143.554 62.9047 143.921 63.044C144.288 63.176 144.588 63.3703 144.823 63.627L144.438 64.188C144.24 63.9827 143.994 63.8177 143.701 63.693C143.415 63.5683 143.122 63.506 142.821 63.506C142.205 63.506 141.692 63.715 141.281 64.133C140.87 64.551 140.665 65.0863 140.665 65.739C140.665 66.3843 140.87 66.916 141.281 67.334C141.699 67.7447 142.22 67.95 142.843 67.95C143.166 67.95 143.488 67.884 143.811 67.752C144.134 67.6127 144.401 67.4257 144.614 67.191L144.955 67.752C144.713 68.0233 144.398 68.2397 144.009 68.401C143.628 68.555 143.224 68.632 142.799 68.632C141.97 68.632 141.277 68.3643 140.72 67.829C140.17 67.2863 139.895 66.5897 139.895 65.739ZM145.56 68.544V67.873C146.015 67.7997 146.348 67.5027 146.561 66.982C146.774 66.454 146.88 65.673 146.88 64.639V62.967H150.268V68.5H149.52V63.616H147.606V64.639C147.606 65.9443 147.441 66.9087 147.111 67.532C146.788 68.148 146.271 68.4853 145.56 68.544ZM151.668 69.886C151.873 70.0547 152.093 70.139 152.328 70.139C152.768 70.139 153.12 69.8383 153.384 69.237L153.714 68.445L151.415 62.967H152.24L153.857 67.004L154.066 67.587H154.088C154.139 67.3817 154.202 67.1873 154.275 67.004L155.87 62.967H156.673L153.945 69.655C153.798 70.0143 153.586 70.2967 153.307 70.502C153.036 70.7073 152.72 70.81 152.361 70.81C152.192 70.81 152.024 70.7807 151.855 70.722C151.694 70.6707 151.576 70.6193 151.503 70.568L151.382 70.48L151.668 69.886ZM157.183 68.5L159.053 65.673V65.651L157.359 62.967H158.173L159.669 65.343H160.56V62.967H161.286V65.343H162.177L163.673 62.967H164.498L162.804 65.651V65.673L164.674 68.5H163.794L162.177 66.003H161.286V68.5H160.56V66.003H159.68L158.052 68.5H157.183ZM165.454 65.365C165.454 64.3677 165.615 63.5647 165.938 62.956C166.26 62.3473 166.858 61.845 167.731 61.449L169.777 60.492L170.052 61.119L167.918 62.098C167.309 62.384 166.869 62.7287 166.598 63.132C166.334 63.5353 166.183 64.0413 166.147 64.65H166.169C166.601 63.8727 167.291 63.484 168.237 63.484C168.926 63.484 169.487 63.715 169.92 64.177C170.36 64.6317 170.58 65.2513 170.58 66.036C170.58 66.7987 170.345 67.422 169.876 67.906C169.406 68.39 168.801 68.632 168.061 68.632C167.188 68.632 166.535 68.335 166.103 67.741C165.67 67.147 165.454 66.355 165.454 65.365ZM166.268 66.025C166.268 66.619 166.436 67.092 166.774 67.444C167.111 67.796 167.533 67.972 168.039 67.972C168.545 67.972 168.966 67.7997 169.304 67.455C169.641 67.103 169.81 66.6337 169.81 66.047C169.81 65.453 169.641 64.9837 169.304 64.639C168.974 64.287 168.567 64.111 168.083 64.111C167.547 64.111 167.111 64.2943 166.774 64.661C166.436 65.0277 166.268 65.4823 166.268 66.025ZM171.55 67.015C171.55 65.7317 172.672 65.09 174.916 65.09H175.246V64.936C175.246 63.9827 174.791 63.506 173.882 63.506C173.317 63.506 172.793 63.682 172.309 64.034L171.968 63.462C172.188 63.2713 172.477 63.121 172.837 63.011C173.196 62.8937 173.559 62.835 173.926 62.835C174.593 62.835 175.103 63.0183 175.455 63.385C175.814 63.7443 175.994 64.2687 175.994 64.958V68.5H175.279V67.851L175.312 67.389H175.29C175.136 67.741 174.89 68.038 174.553 68.28C174.223 68.5147 173.845 68.632 173.42 68.632C172.914 68.632 172.474 68.489 172.1 68.203C171.733 67.917 171.55 67.521 171.55 67.015ZM172.309 66.949C172.309 67.2277 172.419 67.4733 172.639 67.686C172.859 67.8987 173.163 68.005 173.552 68.005C174.058 68.005 174.465 67.7923 174.773 67.367C175.088 66.9417 175.246 66.465 175.246 65.937V65.684H174.927C174.692 65.684 174.487 65.6877 174.311 65.695C174.142 65.7023 173.918 65.7317 173.64 65.783C173.368 65.827 173.145 65.8893 172.969 65.97C172.793 66.0507 172.639 66.1753 172.507 66.344C172.375 66.5127 172.309 66.7143 172.309 66.949Z" fill="white"/>
</svg>
