<svg width="32" height="32" viewBox="0 0 32 32" fill="none" xmlns="http://www.w3.org/2000/svg">
<rect width="32" height="32" rx="16" fill="#03A9F4"/>
<g clip-path="url(#clip0)">
<path d="M23.4671 16.0801C23.4671 12.0591 20.1613 8.79878 16.0823 8.79878C15.6526 8.79878 15.2306 8.83555 14.8193 8.90523C14.1593 8.49588 13.3784 8.25781 12.5413 8.25781C10.1752 8.25781 8.25806 10.1478 8.25806 12.481C8.25806 13.2601 8.4729 13.9888 8.84644 14.6168C8.7487 15.0891 8.69644 15.5797 8.69644 16.0801C8.69644 20.102 12.0032 23.3623 16.0813 23.3623C16.5439 23.3623 16.9948 23.3197 17.4342 23.2404C18.0381 23.5597 18.7261 23.7417 19.4597 23.7417C21.8248 23.7417 23.7419 21.8507 23.7419 19.5194C23.7419 18.8459 23.5813 18.2091 23.2968 17.6439C23.409 17.1388 23.4671 16.6172 23.4671 16.0801Z" fill="white"/>
<path d="M19.8699 19.5603C19.5283 20.0374 19.0241 20.4148 18.3689 20.6819C17.7215 20.947 16.9463 21.0835 16.0618 21.0835C15.0012 21.0835 14.1118 20.8996 13.417 20.5357C12.9205 20.2716 12.5122 19.9145 12.2015 19.4712C11.887 19.0261 11.7292 18.5838 11.7292 18.1551C11.7292 17.8899 11.8328 17.6577 12.037 17.469C12.2392 17.2803 12.4986 17.1864 12.8083 17.1864C13.0618 17.1864 13.2805 17.2609 13.4586 17.409C13.628 17.5522 13.7741 17.7632 13.8912 18.0332C14.0218 18.3293 14.1641 18.579 14.3141 18.7735C14.4602 18.9641 14.6683 19.1228 14.9344 19.2477C15.2025 19.3716 15.5634 19.4364 16.0067 19.4364C16.6173 19.4364 17.1186 19.3067 17.4941 19.0541C17.8628 18.8074 18.0409 18.5093 18.0409 18.1454C18.0409 17.859 17.947 17.6325 17.7563 17.4554C17.5551 17.2696 17.2899 17.1254 16.9686 17.0257C16.6328 16.9232 16.177 16.8109 15.6138 16.6948C14.8463 16.5332 14.1951 16.3425 13.6783 16.1238C13.1489 15.9012 12.7212 15.5935 12.4096 15.2093C12.0922 14.8164 11.9315 14.3257 11.9315 13.749C11.9315 13.1993 12.0999 12.7038 12.4328 12.2761C12.7628 11.8512 13.2447 11.5193 13.867 11.2938C14.4796 11.0703 15.2083 10.958 16.0338 10.958C16.6928 10.958 17.2725 11.0335 17.7573 11.1825C18.2441 11.3316 18.6544 11.5328 18.9767 11.7816C19.3018 12.0332 19.5438 12.2993 19.6947 12.578C19.8476 12.8587 19.926 13.1383 19.926 13.4083C19.926 13.6687 19.8244 13.9057 19.6231 14.1109C19.4199 14.318 19.1644 14.4225 18.8644 14.4225C18.5915 14.4225 18.3767 14.3557 18.2286 14.227C18.0902 14.1061 17.946 13.9174 17.7873 13.6483C17.6034 13.3038 17.3799 13.0319 17.1244 12.8393C16.8757 12.6525 16.4615 12.5596 15.8905 12.5596C15.3622 12.5596 14.9305 12.6641 14.6112 12.8712C14.3034 13.0696 14.1534 13.298 14.1534 13.569C14.1534 13.7345 14.2018 13.8728 14.3015 13.9919C14.406 14.1196 14.5541 14.229 14.7418 14.3219C14.9354 14.4177 15.1357 14.4951 15.336 14.5493C15.5412 14.6054 15.8847 14.6896 16.358 14.797C16.956 14.9228 17.5047 15.0651 17.9905 15.219C18.4831 15.3728 18.907 15.5635 19.2554 15.787C19.6086 16.0145 19.8883 16.3048 20.0876 16.6532C20.287 17.0045 20.3876 17.4351 20.3876 17.9364C20.3867 18.5354 20.2125 19.0822 19.8699 19.5603Z" fill="#03A9F4"/>
</g>
<defs>
<clipPath id="clip0">
<rect width="15.4839" height="15.4839" fill="white" transform="translate(8.25806 8.25781)"/>
</clipPath>
</defs>
</svg>
