<svg width="392" height="256" viewBox="0 0 392 256" fill="none" xmlns="http://www.w3.org/2000/svg">
<path fill-rule="evenodd" clip-rule="evenodd" d="M255.673 137.225C255.89 134.178 256 131.102 256 128C256 57.3076 198.692 0 128 0C57.3076 0 0 57.3076 0 128C0 196.628 54.0089 252.641 121.841 255.854C117 244.845 112.703 234.276 110.165 226.034C104.679 208.181 105.565 196.171 106.099 188.926C106.34 185.66 106.51 183.363 105.992 181.935C105.543 180.696 104.562 178.836 103.293 176.43C99.854 169.91 94.3046 159.389 91.539 146.424C89.5499 137.1 90.227 131.003 90.771 126.104C91.2623 121.68 91.6451 118.233 89.8564 114.268C86.0875 105.915 82.1167 83.5718 87.972 80.8544C93.6363 78.2257 107.756 88.092 113.028 91.7757C113.205 91.8999 113.373 92.0171 113.53 92.1266C117.13 94.6366 119.911 93.9729 123.804 93.0439C125.114 92.7312 126.55 92.3885 128.185 92.1266C128.438 92.0861 128.684 92.0469 128.923 92.0087C134.832 91.0659 136.727 90.7634 139.509 88.1679C140.39 87.3458 141.335 86.6932 142.312 86.0184C144.544 84.4762 146.944 82.8182 149.133 78.7576C152.28 72.9203 161.719 57.4042 163.805 58.7126C165.891 60.021 167.355 66.2945 168.617 73.8093C169.285 77.7832 169.717 83.3942 170.068 87.9534C170.38 92.0157 170.629 95.243 170.922 95.733C187.899 103.667 192.93 120.374 195.858 136.242C200.047 138.758 244.837 138.758 254.933 137.5C255.166 137.5 255.413 137.406 255.673 137.225Z" fill="white"/>
<path fill-rule="evenodd" clip-rule="evenodd" d="M255.673 137.225C255.89 134.178 256 131.102 256 128C256 57.3076 198.692 0 128 0C57.3076 0 0 57.3076 0 128C0 196.628 54.0089 252.641 121.841 255.854C117 244.845 112.703 234.276 110.165 226.034C104.679 208.181 105.565 196.171 106.099 188.926C106.34 185.66 106.51 183.363 105.992 181.935C105.543 180.696 104.562 178.836 103.293 176.43C99.854 169.91 94.3046 159.389 91.539 146.424C89.5499 137.1 90.227 131.003 90.771 126.104C91.2623 121.68 91.6451 118.233 89.8564 114.268C86.0875 105.915 82.1167 83.5718 87.972 80.8544C93.6363 78.2257 107.756 88.092 113.028 91.7757C113.205 91.8999 113.373 92.0171 113.53 92.1266C117.13 94.6366 119.911 93.9729 123.804 93.0439C125.114 92.7312 126.55 92.3885 128.185 92.1266C128.438 92.0861 128.684 92.0469 128.923 92.0087C134.832 91.0659 136.727 90.7634 139.509 88.1679C140.39 87.3458 141.335 86.6932 142.312 86.0184C144.544 84.4762 146.944 82.8182 149.133 78.7576C152.28 72.9203 161.719 57.4042 163.805 58.7126C165.891 60.021 167.355 66.2945 168.617 73.8093C169.285 77.7832 169.717 83.3942 170.068 87.9534C170.38 92.0157 170.629 95.243 170.922 95.733C187.899 103.667 192.93 120.374 195.858 136.242C200.047 138.758 244.837 138.758 254.933 137.5C255.166 137.5 255.413 137.406 255.673 137.225Z" fill="white"/>
<path fill-rule="evenodd" clip-rule="evenodd" d="M255.673 137.225C255.89 134.178 256 131.102 256 128C256 57.3076 198.692 0 128 0C57.3076 0 0 57.3076 0 128C0 196.628 54.0089 252.641 121.841 255.854C117 244.845 112.703 234.276 110.165 226.034C104.679 208.181 105.565 196.171 106.099 188.926C106.34 185.66 106.51 183.363 105.992 181.935C105.543 180.696 104.562 178.836 103.293 176.43C99.854 169.91 94.3046 159.389 91.539 146.424C89.5499 137.1 90.227 131.003 90.771 126.104C91.2623 121.68 91.6451 118.233 89.8564 114.268C86.0875 105.915 82.1167 83.5718 87.972 80.8544C93.6363 78.2257 107.756 88.092 113.028 91.7757C113.205 91.8999 113.373 92.0171 113.53 92.1266C117.13 94.6366 119.911 93.9729 123.804 93.0439C125.114 92.7312 126.55 92.3885 128.185 92.1266C128.438 92.0861 128.684 92.0469 128.923 92.0087C134.832 91.0659 136.727 90.7634 139.509 88.1679C140.39 87.3458 141.335 86.6932 142.312 86.0184C144.544 84.4762 146.944 82.8182 149.133 78.7576C152.28 72.9203 161.719 57.4042 163.805 58.7126C165.891 60.021 167.355 66.2945 168.617 73.8093C169.285 77.7832 169.717 83.3942 170.068 87.9534C170.38 92.0157 170.629 95.243 170.922 95.733C187.899 103.667 192.93 120.374 195.858 136.242C200.047 138.758 244.837 138.758 254.933 137.5C255.166 137.5 255.413 137.406 255.673 137.225Z" fill="white"/>
<path d="M212.64 228.376C199.917 240.087 204.265 217.445 204.265 208.148C204.898 200.571 190.616 201.98 187.466 229.314C183.909 260.186 201.51 259.831 212.64 250.31C243.672 223.763 253.633 210.507 273.315 192.288C283.785 182.596 286.717 177.151 285.649 201.281C284.14 235.415 307.794 240.16 318.147 233.913C334.766 221.941 346.266 196.837 354.662 210.507C363.178 224.373 362.733 234.681 370.559 237.52C388.919 244.18 400.535 222.07 384.188 221.862C363.755 221.602 363.783 185.055 365.69 165.795C367.215 150.388 360.632 161.182 356.085 166.86C318.858 213.346 319.574 214.541 311.618 212.636C302.725 210.507 305.271 163.05 303.909 147.955C302.819 135.879 296.19 142.229 293.011 146.914C273.395 171.292 226.212 215.881 212.64 228.376Z" fill="white"/>
</svg>
