<svg width="1372" height="862" viewBox="0 0 1372 862" fill="none" xmlns="http://www.w3.org/2000/svg">
<g clip-path="url(#clip0)">
<path d="M1263.58 861.592C1263.58 861.592 1431.46 657.161 1349.41 446.702C1295.93 309.522 1095.32 234.351 982.102 309.522C933.878 341.535 779.175 310.603 696.572 178.055C536.05 -79.5177 -24.1623 76.9099 77.826 472.371C127.182 663.742 -72.3813 670.701 29.302 862L1263.58 861.592Z" fill="#EBF3FA"/>
<path d="M281.82 872.307L200.51 470.767C190.07 416.397 235.12 366.686 293.62 368.026L450.43 371.607C476.797 372.204 502.286 381.201 523.185 397.287C544.085 413.374 559.305 435.711 566.63 461.047L685.63 872.327L281.82 872.307Z" fill="#CBE0F9"/>
<path d="M331.01 872.307L249.7 470.767C239.26 416.397 284.31 366.686 342.81 368.026L499.63 371.627C525.99 372.227 551.47 381.223 572.364 397.306C593.257 413.388 608.474 435.718 615.8 461.047L734.8 872.327L331.01 872.307Z" fill="#D8E7F8"/>
<path d="M1166.56 1529.72L1166.57 1529.72C1168.01 1529.56 1169.39 1529.12 1170.65 1528.42C1171.92 1527.73 1173.03 1526.79 1173.92 1525.66C1174.82 1524.53 1175.48 1523.23 1175.88 1521.84C1176.27 1520.45 1176.38 1519 1176.21 1517.57C1176.21 1517.57 1176.21 1517.57 1176.21 1517.57L1079.16 766.813L1025.78 768.344L1156.18 1522.65C1156.18 1522.65 1156.18 1522.65 1156.18 1522.65C1156.59 1524.87 1157.85 1526.85 1159.68 1528.18C1161.51 1529.51 1163.78 1530.09 1166.02 1529.79L1166.09 1530.29L1166.02 1529.79L1166.56 1529.72Z" fill="#78E7A8" stroke="#78E7A8"/>
<path d="M218.243 1529.72L218.253 1529.72L218.783 1529.79C221.027 1530.09 223.3 1529.52 225.131 1528.19C226.962 1526.86 228.213 1524.88 228.626 1522.65C228.626 1522.65 228.626 1522.65 228.626 1522.65L359.037 768.344L305.646 766.813L208.594 1517.57C208.594 1517.57 208.594 1517.57 208.594 1517.57C208.423 1519 208.537 1520.46 208.93 1521.84C209.323 1523.23 209.987 1524.53 210.884 1525.66C211.781 1526.79 212.894 1527.73 214.157 1528.43C215.42 1529.12 216.808 1529.57 218.243 1529.72Z" fill="#78E7A8" stroke="#78E7A8"/>
<path d="M275.263 704.479H1230.99C1233.14 704.479 1234.91 705.687 1236.21 708.03C1237.51 710.37 1238.31 713.785 1238.57 718.048C1239.1 726.568 1237.48 738.369 1233.58 751.426L1224.69 781.116C1220.78 794.174 1215.34 805.975 1209.71 814.495C1206.9 818.758 1204.05 822.173 1201.35 824.513C1198.65 826.856 1196.16 828.064 1194.01 828.064H238.28C236.125 828.064 234.36 826.856 233.059 824.513C231.76 822.173 230.96 818.758 230.695 814.495C230.166 805.975 231.785 794.174 235.692 781.116L244.577 751.426C248.485 738.369 253.929 726.568 259.558 718.048C262.373 713.785 265.218 710.37 267.917 708.03C270.62 705.687 273.108 704.479 275.263 704.479Z" fill="#78E7A8" stroke="#78E7A8"/>
<path d="M734.71 804.08H551C550.998 800.205 552.533 796.487 555.268 793.743C558.003 790.998 561.716 789.451 565.59 789.44H734.71V804.08Z" fill="#353535"/>
<path d="M734.181 604H1018.21L950.091 804.08H664.211L734.181 604Z" fill="#353535"/>
<path d="M1022.39 601L954.271 801.08H668.391L738.361 601H1022.39Z" fill="black"/>
<path d="M828.378 709.235C825.71 711.679 826.621 706.954 826.621 705.013C826.754 703.432 823.758 703.726 823.098 709.431C822.352 715.874 826.043 715.8 828.378 713.812C834.887 708.272 836.977 705.506 841.105 701.704C843.301 699.681 843.916 698.544 843.692 703.58C843.376 710.704 848.337 711.694 850.509 710.391C853.995 707.892 856.407 702.653 858.168 705.506C859.954 708.4 859.861 710.551 861.503 711.143C865.354 712.533 867.79 707.919 864.361 707.876C860.075 707.821 860.081 700.194 860.481 696.175C860.801 692.959 859.42 695.212 858.467 696.397C850.658 706.098 850.808 706.348 849.139 705.95C847.274 705.506 847.808 695.602 847.522 692.451C847.294 689.931 845.903 691.256 845.237 692.234C841.122 697.322 831.225 706.627 828.378 709.235Z" fill="white"/>
<path d="M506.051 593.46C513.99 619.294 539.214 668.033 544.222 681.368C549.23 694.703 548.392 726.007 540.47 727.68C532.548 729.354 527.54 731.428 525.865 738.522C524.19 745.617 524.625 749.348 536.718 750.235C548.811 751.121 553.819 754.401 560.067 749.398C566.314 744.395 570.116 716.905 574.672 712.321C579.228 707.736 583.046 706.482 584.252 715.667C585.458 724.853 580.082 747.758 583.432 752.326C586.781 756.894 592.191 762.365 602.609 760.692C613.027 759.019 616.377 757.345 617.215 749.448C618.052 741.551 615.959 720.988 617.265 710.949C618.571 700.91 619.342 685.952 626.025 683.459C627.83 682.894 629.73 682.693 631.614 682.87C633.498 683.046 635.327 683.596 636.996 684.487C638.665 685.378 640.139 686.593 641.332 688.059C642.525 689.526 643.414 691.216 643.946 693.03C646.04 700.96 647.715 713.107 653.996 715.115C660.277 717.123 670.259 718.461 674.43 714.697C678.6 710.932 680.275 708.004 677.78 702.617C675.284 697.229 667.362 695.121 667.73 688.863C668.099 682.606 680.242 652.623 685.25 639.288C690.258 625.953 687.745 613.036 690.274 609.288C692.804 605.54 701.128 587.621 699.872 574.303C698.616 560.984 693.172 538.464 684.027 527.22C674.882 515.977 694.077 428.053 696.957 406.753C699.838 385.454 699.872 368.422 688.198 368.003C676.523 367.585 676.942 406.753 675.267 419.67C673.592 432.587 656.625 505.151 650.16 505.151C640.111 506.406 595.525 506.406 591.354 503.897C588.44 488.069 583.432 471.404 566.532 463.49C565.912 462.453 565.493 449.118 564.237 441.622C562.981 434.126 561.524 427.869 559.447 426.564C557.37 425.259 547.974 440.735 544.842 446.558C541.71 452.38 538.142 453.25 535.261 455.944C532.38 458.638 530.454 458.855 523.989 459.893C517.524 460.93 514.191 463.239 509.4 459.893C504.61 456.546 489.787 445.939 483.958 448.649C478.13 451.36 482.083 473.646 485.834 481.978C489.586 490.311 483.741 496.351 487.509 514.053C491.278 531.755 500.239 544.889 501.897 549.473C503.555 554.058 498.128 567.627 506.051 593.46Z" fill="black"/>
<path d="M535.553 728.841C535.622 728.577 535.688 728.311 535.753 728.045C535.689 728.311 535.621 728.576 535.553 728.841Z" fill="#AFE6FF"/>
<path d="M464.631 718.548H459.316L473.553 666.11H502.031C505.774 666.11 509.225 667.815 511.499 670.789C513.773 673.762 514.515 677.539 513.534 681.152C507.556 703.17 487.446 718.548 464.631 718.548ZM479.768 674.238L470.039 710.074C486.897 707.907 501.149 695.746 505.689 679.022C506.001 677.874 505.765 676.672 505.042 675.727C504.319 674.781 503.221 674.238 502.031 674.238H479.768V674.238Z" fill="white"/>
<path d="M496.383 706.073C490.632 687.716 486.932 669.359 486.281 651H444.374V718.853C444.374 729.634 448.209 740.139 455.455 748.123C457.737 750.637 459.306 753.476 459.316 756.453C459.298 761.537 453.038 766.076 447.828 768.343C446.251 769.029 445.237 770.589 445.237 772.308V774.767C445.237 776.73 446.829 778.321 448.792 778.321H483.49C485.758 778.321 487.709 776.579 487.815 774.314C487.929 771.896 486.002 769.9 483.609 769.9H483.34C475.999 769.9 470.047 763.962 470.021 756.627C470.047 749.376 474.298 742.759 480.948 739.859C486.49 737.441 491.195 733.24 494.207 727.759C497.852 721.127 498.645 713.294 496.383 706.073V706.073Z" fill="white"/>
<path d="M445.856 774.11C445.856 771.785 447.741 769.899 450.067 769.899H450.336C457.693 769.899 463.657 763.935 463.657 756.579V756.694C463.657 749.416 459.399 742.768 452.728 739.858C447.186 737.441 442.482 733.239 439.469 727.758C435.824 721.127 435.031 713.294 437.293 706.073C443.044 687.716 446.744 669.359 447.395 651H438.375C437.723 669.359 434.024 687.716 428.272 706.073C424.026 719.625 430.719 734.193 443.708 739.858C450.378 742.767 454.637 749.416 454.637 756.694V756.578C454.637 763.935 448.673 769.899 441.316 769.899H441.046C438.721 769.899 436.836 771.784 436.836 774.11C436.836 776.436 438.721 778.321 441.046 778.321H450.067C447.741 778.321 445.856 776.436 445.856 774.11Z" fill="#E1FAFF"/>
<path d="M445.652 706.402H496.48C496.448 706.293 496.417 706.183 496.383 706.073C493.37 696.457 490.927 686.841 489.185 677.224H445.652V706.402Z" fill="#872D1E"/>
<path d="M447.298 706.402C447.33 706.293 447.362 706.183 447.396 706.073C450.409 696.457 452.854 686.841 454.596 677.224H435.472C433.729 686.841 431.285 696.457 428.272 706.073C428.238 706.183 428.208 706.293 428.175 706.402H447.298Z" fill="#69280F"/>
<path d="M445.652 677.535H489.24C488.501 673.488 487.883 669.44 487.403 665.393C486.084 665.072 485.094 664.823 484.016 664.616C478.168 663.492 470.01 666.872 460.663 667.337C459.139 667.413 457.634 667.369 456.145 667.254C452.57 666.977 445.652 677.535 445.652 677.535Z" fill="#FFFAD7"/>
<path d="M454.538 677.535C455.164 674.104 455.704 670.673 456.146 667.243C448.851 666.67 444.362 665.075 438.328 665.612C438.369 665.627 437.685 665.743 437.2 665.838C436.729 669.737 436.128 673.636 435.416 677.535H454.538V677.535Z" fill="#FFEBB4"/>
<path d="M496.383 706.073C496.365 706.016 496.348 705.959 496.33 705.902H445.652V716.42C445.652 730.039 456.233 741.315 469.824 742.18C488.681 742.18 501.954 723.854 496.383 706.073Z" fill="#872D1E"/>
<path d="M471.89 742.101C462.551 741.408 454.127 736.047 449.572 727.759C445.928 721.127 445.134 713.295 447.396 706.073C447.414 706.016 447.431 705.959 447.449 705.902H428.325C422.653 724.026 436.059 742.18 454.831 742.18C470.64 742.173 470.334 742.217 471.89 742.101Z" fill="#69280F"/>
</g>
<defs>
<clipPath id="clip0">
<rect width="1372" height="862" fill="white"/>
</clipPath>
</defs>
</svg>
